<<<<<<< HEAD
<mxfile host="Electron" modified="2022-09-12T15:56:18.106Z" agent="5.0 (Macintosh; Intel Mac OS X 10_15_7) AppleWebKit/537.36 (KHTML, like Gecko) draw.io/20.3.0 Chrome/104.0.5112.114 Electron/20.1.3 Safari/537.36" version="20.3.0" etag="AaN-KHf1co5t78OpaX2Z" type="device"><diagram id="B2QsUjet5WNCfd_3KvjM" name="Page-1">7Z1bd9q61oZ/TS7DsOTzZZKm2flWethJ1tf2KkPBArxrMNuYJqxfv2WwwLZkYhKfPdsxWnxAgPxoSq/m1NSZejV/vQnIcvbFd6h3hhXn9Uz9dIYxsi2b/Red2ezOYM3GuzPTwHV255TDiQf3Hxq/lZ9duw5dxed2p0Lf90J3mT459hcLOg5T50gQ+C/p2ya+56ROLMmUCicexsQTz/5wnXDGfxj/1tGFf1F3OuMfjZX4ypzwu+MTqxlx/JfEKfX6TL0KfD/cvZq/XlEvqr50xXzOubr/ZgFdhEXe4Dwt17o6+3t+c/9IDfv/vmz+2ZzHpfwh3jr+xSQI3VUYf+Vwwysi8NcLh0ZFoTP1kgTj+FmxB6VevszckD4syTg688JQYOdm4dzjd3vudMFej9k3pQE7sfpNw/EsvjpxPe/K9/xg+0GqQ6g1GUc3hYH/myauGGOLPk+id/iL8DOZu15E1e5jsfLFX/jxtQd/HWy/yiwMGSdYVy/YP6xion+iG1ajqe9PPUqW7mo09ufbC+PV9tbPk13J7CUvW8eXydJ3Pxyb7Fh8BrxCaRDS18Sp+JncUH9Ow4AVr8RX2WMbYX33rriVnNumuTvxkmAOWbtzswRuWswWiTGf7os/gMBexCycwAUWuDjDhhfGVZBCw/jv2ucXzlfbymHVrWBz+bqtIX6dvZpG/7OqckOXNeq4wLPdM+GXBfJYPYZv8BTVtssa7UV8Ye46TvT2y4CyL0Set0VFoC59lz39qFz98kz/FJW1Dv1VjLJAZmOcufOkXcEaP8VtELbSjRBL2Nwex9UY/Zp0C556ZLWKayXd0hw6IWsvLIduxAnlaCNFNUS2DUXCtlYR26rA9jMlDVo8ihydmjKLZxumSoy+WTwLp5EwNVsgwtJrNHaa2AmOx+zph9xEPQfcOi09svEa7R8nkwkeS/tHx3g29N7REvWP2e4Rq6IJUSXdo1mVCbGLmRA25FtGL8NdF8QeGRtdxfWjRmCwYWtI3EX00LfPeux7Hlmu3Oe91R7PXM+5Ixt/HfKC+BEj45U697sx7s7Cv9yxwrhZz3YAAmbb3pEVtwrzej8OsdUxq1UCd4alpqkzFHWkiH2XhrWRopkGsvm/EstlVGW6uE5KDdSOUXgfSZDLmR+4/0TsefshwIHM7fGLO/fIgo1BiJM5delv1ZySQWLhL6hAcHSTE/jLRxJMaSgdhF2yX3AVNXE2HMNX7BgdjrcjtKUfhFf+gmHGWkpUBmXAvtAI2svQX8aFenTCyw/iio9eP/thyLgpgneLYD1qc94mOCZWVd4Fq1oZq6LY/P5XLq3LSIgS756perKYeju2tiI/MZ6XAChFYo9Blo+sjfRZ9U68rUyfMRFBF53HZm8h3uYmAYoqGZAfAyMu7PC0Ti6NeKxTWpCQ2Rc2kloJtO2/5wcAFFUtu79ZAHmnvLv3csWesruY3u3eaQCh0r5ZYtmQaY0sTTV1ZfeHDxHLAfg9pdcAtCoql8vbm4fr+9uLO+C6e1xjRY5ZahpQHTHBvP/DZwpL4vwdpdfAuW4Dzd2jWcV4pNuMZhFiBY00XbWMdw5D34D4HaXXYawNE6SZTJopnW8bJ0szo2XSTDUsYSTx+aZho0sdl5fXT5O6twigzVhdiHOqO1f0U/s12rDRBFGWrjpTnJNlquz26yNg3AGMQYPlYS1O3379xphWvv591/rZBkAbBJng9gdXGeix3VW7ZXpMU0F7VYsIb/wgvc410YuwIHMKXXqLmQTNla45XUD48fonCK4OIAx6S16ThjiLAHKrS2CD2kr7D8Wwe5BfIL92V3HL9BcSh8QgyCqOL1ALU9N3QYbE0ezzcg59fouRBD2WnpwGPdZVhEGP5egxcH91G2zQY+kKNECPgR7L0WN62/SYWRxW0GPlGFijMDW912NicOxvuoE+v8VIgh7LBAuBHusowqDHcvQYFpAGPdYlsEGPpTOu6SC/QH7trlotk1/YALVVLSO89YPaOsei1l/O/NB/WkYZVaFjby+ZILoyK2ZAdHUUYRBdOaJLDOIC0dUlsEF0pSvQAtEFomtn8lHbRFfTSY/6L7qswpD0XXTxj0x07POlCpKr7VyC5EpjLHpqQXJ1A2GQXDmSS1yKAJKrS2CD5EqbaASSCyTXzuRrLZNcKgbJVXHWouL7cPRecolzqS/kD0iutnMJkitdc2LeTpBc3UAYJFeO5MoPxQJ6W0Mv6Kp0AKZoh0FogdDaGXqzZUILi+4GUF4VB2gXp6bvymu/GeSBvildBJDxsM1QguxK5yMTLSjIrm4gDLIrR3Y1vcoA6AXZdfJYAlQWqCxOX9tUFmSRrzoaAIOo4lUhxqnMfd+BLr3FTIKmSmsqcV4ANFU3EAZNlaOp8vecBXpbQy9oqlQFmhAiCJoqpk8yNmlUU5ngqKqYERNCBPdVIYYIjgPKPtJ5IiF07C0mE5RVuubEyYHH2y/XD48XX74Dx+3nGORVTk2K+xzA4qwugT1c5RX+uvrz7Zey+LEmzvkPir/+DJVzBMoLlFdMn9Gc8pKzCcqrPEaOtv5hKS95VYjKixm5hcNAe1oG7hhiBdtM53DVl7zmJOoL/FqdQBiEV05NgvDqNtggvFIVmB/6CrqrKy2jJN1lt0x3NR1B0HvZNciNtqQ1IWZvWwZ07q7noLnajiZIrlTFQVKMjgIMgitnhC+uNwTB1SGuQW+lcQa9BXor1lYt01vg5qp6sgr0VlwTopNrvfDcuRsFGILiajmcoLhSFQc+ro4CDIpLXpHg4eo01sMVXPKFiLbALHWm9CE+ZOpl5k/9BfGuD2cvg+jrUC6tDvfc+VtcI5D+Q8NwE5NE1mH0RGfh3MvBjMkj/zf9EdeWGo12F85FEGxJjZsCO/PZ9TxJWznDKkWOTs19SYkrtmGqJGKfvrrhz+gDRwrC8fGvqLSRqqH4+NMrH2xHB5vEwXcauKyuacA/v7GGkWqvrHEEm5/8e0YHu59kIpOfOPym7dEmeZT9VWKj44Kc/5xcjmIfQci1ct6NPLNNRNnR9hpQj4TuH5r6Hkfa3fdImB/aucG7i1hPnu+TLfIydl81ftuhZTHsyCZxWyz48z9Iz3yQGkdEHlrqrshy263ok3HohKw9VveMNPZTjf+u/agXuIgK4we5HdTCD6NGtoobpc1ev8yY4Njhp356Ccgy3YaP9xsnN8829TQndyq6gTMMaIbQv9iGaPGRUsJ0hTzmXhmKYW+OHN6lKCM2PE11KbrJu5jiXUohw66/YdZrsOAY12TBNT1jwfVMGbvfJFhwsSQLZUuqqC/gu0LtP8iyq+8LTO51OPQFIZnmmvpYcqRmzVVlp0hC4i62QKKz7Gz49szM9Zw7svHXIS+IH7GG+0qde/9lFd/L2vgdK2yVGDBx44MSWmXMQI0+8TKgUedzR6KpcehgMh0Mwpo2UtQMXJJORtUlU5ioumX34l7qx7kbqgfnbaBbhOdxK3NC4r1ieFZHpzhI/v5XLp/1zNFk7WCnp2SO24RBOXLkVSHGG7H7Wz5JCIQW8ubY9ohPIpbDbMECa8DWEoOKLm9vHq7vby9aP8UN9MpGjwe0Ug6WUvktVFwd9OYHEQGjrWU0EjhSp4w+wuViWrDEOkgFsdTTcLfTxZIkrUO9YskSo44+3zRsSfsU83bUAoBWOrfESKFnSsKn9gumQWM5TIEkBgExgXT7FeLaOoDqwNSQ6ByCeLUu4TpIYQRuJVBKeUpJkoihZqUkupVAJ1VsNsGntK8K0acUkunTgsxhWVCbuRykULJFTxIs/+kGqMOSSba4xxjIpC7hOkSZhFRVQLOGIO99bDIaKcr+RLzwRD07HqCcRTERD359PycL55skKFwMIz89/nOrBQ8fxRrio/+FLDb8UjIGvbmIctmqnHRgOI85P0vFm58dizYXG13RoHA+XfH2sp6Y/qqDwhHS4vEvj4JFfOunN6LCT43lRshA8k/KCzMX36HHEeuVhn8jyS4uZDxmrTx/L6I+xoA7hFqTscwGGGOLPk9a1u+dHgOOrMyCCKQgU+jxdEWiU7FV1WQIkuy1chy7oc7VdT8E/GBpPhIDLgW0ssk6JFkdA0HgNaCiF0al7zN2SLJKpv1RDcBowaw+RqnMFiquFmhFLwcEgXeZXSRxnCFcLrxFiqsBXswnaADRTiGqIhFRq1RCi5RWi3UV8+4AoB0AVGZDUbk2tEhxdSDKmwro+L7F3LxDx0uWJ9Ss4xtf1tX7IJt9iwfNzuoCC/IHQmzaTuXwVLpk1RYE2HQE00EJ8vyd9ADJ9iA5HAEuWW4IAV/dYnVIWhyc7CDOT1kRU7c4F53sDdvQAah18LAf6kL0sK9X0aeCYm83mQNU7KJfHRR7RzAdlGIXTerfX2///fc1kNoBUgck5MX1sCDku8XqgIS8ZEFsLqMg5LvdEk4X8kiy6W3NSl6yELZhI9p/Jb83CqDkkS363emcuB705G3Gcngy3gbHe2cxHZSMF6ebQMZ3htThyHgb/PFdZ3VIMj5/fRGo9m6D/w7Vrovg163amw6vG4BIB3f7oS5E39By5of+05KwrwqddYvZHKBSB4d7ZzEdlFJv/ZJgQPJsUJJc9KwDoV0gdDhCHCsgxEGI74W41bQQxwoI8Yq52Dd5EOKsLiRCnKxWL37gPM3ICrR4q/EcnBbHCmjxzmI6JC3OPxOQbDWSg9HiWIEo966z2ktVHv66+vPtl7L4sSbO+Q+Kv/4MlfP99hIgykGUY4mNrkyUy3FsetqyT5r8aIMfliSXV4UYF8yImrjBnDrQT7cYzD6LcXndiBGXl9++wWCyA5D2U4rLK6f1mdwByH4KcXnVtC7REfA5WPGdE0eUP3cJ6rsr3JemvrXGXeJHZoNAfpczG8mb/LD0d05dYKGHHgeUfabzRPI3RIW+ugVs9lmC51SOZBX57Zfrh8eLL9+B1Q6w2k8lnuMUb7ojByQLmc8eavGcuoE1411ndUC6XBP7ejIes88Ln5Ye2XjuKn94GqOZEumqsiM3ZKKYBjE0afG9PTNzPeeObPx1yAviR4zyV+rc+y+r+N7Af7ljha14I/DTWwBypseMg+gTLwO6Yt/ljkRKvMD+5ok2dYbVyWSCx+Ptjwr83zRxxTGeDd1oGfKnT9JjTRsp8UOP5fi5yU8klZOFRrbKNyNMYmrbiQvlK3Mtf8UZzBR12xTvjU3hmSKJ6soHs7rZIp5LIWElv//FnvLnm4Y79P7PInFzcNoskqGOkHUqI8e77MJF1tFt62JCTN5tszfCILPFlL5KcEqODFV1VC64RUushVtxHvTy9ub2Kyy26AKzyDYSXW9Se+NRqcgWK68WYEV9BGq+U9Bi0x5pMmiRUjK1BQusBVtxEgpUFaiq/H3TG1FV4v6BoKrqYUYvHrMxJFUlxtHxSVCQVS3HdNiySsy4ALKqM8wOUVaJKRdAVnUK2kHKKlNc8B5PuwrMBtG3oE5MBAnGHIgIsZeZG9Ldw1I/vQRkGWmvcO6d5bg003SlPZYOodZE6rE0xhZ9njTKX6IlYFPK48keTEvfd7vcf2mbpoghLznJjFaZlrFED1FkrAbmPW81iyWwZxgoTR5SkIieJos6tu2RaSBFZeZM02zW51dG4gl7pQ166udtuFuE6htW5yMOdSmu1c36WKILqB2zPlnT2MNhnlXc4iUAMUsNfStSWh1jOUv07LR/jgcYlfTKpmjTULnLiAoVVwu0kvQInZjoAXBlGlqRkNvTdRqWOLfenRkfoFcWJi/ZF7qnYfIqV3mgoXrnPj9dQ0nc5/VqKBVZDVvM3nvI9y0epBKrC3HaG1avd4PNwUmk/agEVq93lNUBqSKVz813UhUBrQNTQZK0h9SZUq6MmaKY+VN/Qbzrw9nLgyM8gupwz52/pTHi5D80DDcxKGQdRg8s4Q1PUfP/NHDIgkjg2mqtiyDY8nh9PycL59uW+u2Fz67HRRldOLLb2OnETTsH5o/4IaiZ9lTM1clYCzY/41+xPfgVlc5EWHz46XX/laIjrv9SbUgkNxbqIRd/+comvjN6RkdRDqhHQvcPTZV/hNPvkdQ8NAGErKxD3jLThay2LTt+34FMSVFc2hyKynhKd79bKIo9UrJJ3BbL4SNfWrXlXzr/uwnvMHGmne2+RbmtzhT9tzW0Ovrqhj85nux1Al12dCA3OtgkMf6ZPCgG/Pta+D808B/9L2SxabKRF2usK96z5T5lw2y4WZ/agAw1k0VAx9bR9iO8oabmk5/h4pkeka/9iM9pLvLr5LwauY3nBJmL0CgDmaWLIYqqrUtDt/d5s8qfsTNhQdZQonIOFudDaS5yGK1uUtmUL8dqVIP23/GmnpA+t+9pUlVTdBJDTE63GD2SLlXHZS/BKlhiLehKl2A9XN/fXrR+Ig8Ilq3Ksg5wpSbjJOsKPjK3V6C4Wvht2qUMlL6HUmyrUkoVXCqlRYqrhVJIDtjTOJx3qCZZGovaVZNk4VfjKxn6H52zX4gJokmVLPiCXIDdYHOoYkmyBqwbyxgA1+EpI8lCMYjR6RSwAxNJkkVioJpANcWqSbK5RQOqSfQ1gWqqHBYLXE2HuhBdTVE4CEimloM5WMkEKf46jOvQJBOk9+s4sL2VTNK925EBAgkEUiyQkGRFT5UKSU5kfsIBUEOnknG0zQ9LDMmrQuyuyXhMV6snZuHC9Qp67BbD2X9BJK8hMSfB4/VPUEMdQLW3YkhaP5J8BKCFuoRrb6WQfMBsa6CFQAtxLaS3wVtki3kHQAyVi4YNrqFDXYiuIUh31Q02+y+GcqpI9A5B0qsuEdtbTZRTQeAg6jiwQ1NF4sKj1qa+8itMe1Ugj8d7swC9J+NQWdl3uIP0zew7PBVb1Tm1TJTJY2IinC6jaEotU8kk59KyyblKyqhlGFrmK8fiMTchUPYNup7KIFRNQiCNp5esOZ9WTqswdfRWu4iOvtPAZb98m3RIebdlKJ4yy6/IOJSU2w7xrqfhJFgI6VnorePQi++w42YgpV7yfsWWf+JblqG8BpS74OwMG140ZnoO2Kvp9pUsxVZteyMWALLBDFmHtlrW3og8f8oeLayKIzRVogHMTOdS2tydpoirZ0IybQ4JihydmjIkbMNUSe+QQDwxyd5caLbAhCzRfGV7ZWqKuD5lGbhRTQAU9UCBdW2kv40FV+llY3G1/vH1387r+u+7B+2L+fiyuCFfz8VOZemRjTe4LVR1ajmaDEULP6tGsyiWYY+wpo2UjLjRdXEXVdUyEhtMp9I0luFpkjKIBQaPszdUX2inkjQetTYfStGYS2hlgIqDKUjRWDkruDAryR2h9BGyynU4FS6y3AlRaZ2IQ7j2L5wDUoXeOIVUaoMUNMLleksLllgDu+LaY8jU2F2EkZHshXu1C4u0gvKXKgGjbWUUm8NiFLZL7UEMaTm6SZaksX7dBBumVg7Gu/ZL7blKkixSWpC5ONHdsh580HQOWRnJ9k6FRXWd4HVoMgiL/iKIIO0SsEPTROBLAk10JAVj/ZqIxwaBJqpsngg8R5JKEV1HsLquE4wOWhmJTiNYYNchaAcnj8Q1zCCPugTs0OSRigVgefznEPbphiDQQ4rjBJ3YMnNGrkipShep+b4iEOqdtsJqcSucH/WZj2R1UZ+iGykK+7yCLRMqJ8YqTEwCEUMbGSUr+MJF1hH7KXqJ9l11+6NABw3pq4Sm5GBQK13CFyyxDmxFjxHsoNAVYrGij2yZHLLKJrZggXUAK672gJEpjExjE96KkakmTubDyLQWYvbGAUamiUoRZ+lhU6/2AzroUak4UQ+j0q4QO8RRqS5Oj9aRPusdyeHenYgumQgrlTIrnQ/rKOCHnFxHkmGls3MdkvJlU3OdkHmrnIR4WJckxDu2FqrpPFxYibHk3gQDp3LJFXiHHmfYKyv7nHz1XjPJ5+LWg97TelC7Ws/eA1Ze6zm4205uPUenN+pvPB8ScwZqks3TLHtPGDt0USPbttMNDb/Z0CR5Id8PLR/9tCYFKkI4k7pM5yGrJWcuRcjC6U9S031BgXfohllD7yHq29wkWWwIG54dT4kWDXTdMfEu4gtzNo7fNeooeCGhJtKzetHEXdSOV3HLOtqCCjWD5qSBOydT+i8+osYaP8VbMo7MRiLzHE5blW1CtmwsSDptnUeeqfedVVbo+tLav8vcsH8Ksea6T6iytAxLnHncWVv9cOaSKzt8tDM7Qezw1seRt1QxYANxPZvKLmlU1WOJ2x4c2kOhVKTQStrRSkrgUzezeFoinrok2s00K8LTFGfHOZZRbaRINP679vmF8x0z7Okpqr183VYPv85pvry+iMI5Hx6/3V+z/z9dPF5cXjxc8/LPdk+c3y1wX18KXmtM5Sl4ny1d04+OWU549kbm4SOkY+Hpm4bk6fM+tfQtfHEzEyUfl23xfOF7B8/G2KLPk+zgeZG7K8FJo2hCrcn75jnkz8gUB73yG1FTUu3o905YFodOyDpq+8xsGGQetdnF82q5MxmZrnBCvFV+FoKFH24fVWy8C1iE/G4qPzV97pPN5akEO4FMNdtLaKKd2MeWlh5wKt99gi+J6u+kUEEmTt/I5Ij4r2+7grenU3ly5e5sbGByKPcTqvobE6rCO2yz3AlVqSVUPz6hun/IH+1y3+9n+GCXK/colNPl7lvJB3pZCf1HN+dtGH7DzpBs4jd2snnjDdWgz6s1uZJ2Rse/d0OATJfPKFg4DATxyjKgc3c9Fy+sF547Z/2+066RQgGzXYaiULIDBUWMuJIlyEf8sXxknPBtot3cGsb4AaMbff2X7X6e30oy5IumTzApyboXRlbbP4IRiOT9eB382cvD7APQo7/7as40Vkm9Hw1Jkilyfu6DM8ialpmx0tIlFN1CSygHIbvYHlpvN3V2GPiRsj/czhrN7Ivv0OiO/wE=</diagram></mxfile>
=======
<mxfile host="app.diagrams.net" modified="2022-09-09T18:10:21.423Z" agent="5.0 (Macintosh; Intel Mac OS X 10_15_7) AppleWebKit/537.36 (KHTML, like Gecko) Chrome/105.0.0.0 Safari/537.36" version="20.2.7" etag="CWwV9xwg3Z7RLX_cGGX4" type="github">
  <diagram id="B2QsUjet5WNCfd_3KvjM" name="Page-1">
    <mxGraphModel dx="2151" dy="3263" grid="0" gridSize="10" guides="1" tooltips="1" connect="1" arrows="1" fold="1" page="1" pageScale="1" pageWidth="1820" pageHeight="1200" math="0" shadow="0">
      <root>
        <mxCell id="0" />
        <mxCell id="1" parent="0" />
        <mxCell id="d_pu53hUmGRTe69JMyzy-1" value="artist" style="rounded=1;arcSize=10;whiteSpace=wrap;html=1;align=center;sketch=1;fillColor=#dae8fc;strokeColor=#6c8ebf;fontFamily=Space Mono;fontSource=https%3A%2F%2Ffonts.googleapis.com%2Fcss%3Ffamily%3DSpace%2BMono;fontSize=27;" parent="1" vertex="1">
          <mxGeometry x="220.25" y="-1004" width="118" height="40" as="geometry" />
        </mxCell>
        <mxCell id="d_pu53hUmGRTe69JMyzy-2" value="&lt;font style=&quot;font-size: 27px;&quot;&gt;entities&lt;/font&gt;" style="text;html=1;align=center;verticalAlign=middle;resizable=0;points=[];autosize=1;strokeColor=#666666;fillColor=#f5f5f5;sketch=1;fontFamily=Space Mono;fontSource=https%3A%2F%2Ffonts.googleapis.com%2Fcss%3Ffamily%3DSpace%2BMono;imageHeight=24;imageWidth=28;arcSize=12;fontSize=27;fontStyle=1;fontColor=#333333;" parent="1" vertex="1">
          <mxGeometry x="140" y="-1063" width="160" height="44" as="geometry" />
        </mxCell>
        <mxCell id="d_pu53hUmGRTe69JMyzy-3" value="beat" style="rounded=1;arcSize=10;whiteSpace=wrap;html=1;align=center;sketch=1;fillColor=#e1d5e7;strokeColor=#9673a6;fontFamily=Space Mono;fontSource=https%3A%2F%2Ffonts.googleapis.com%2Fcss%3Ffamily%3DSpace%2BMono;fontSize=27;" parent="1" vertex="1">
          <mxGeometry x="82" y="-776" width="85" height="40" as="geometry" />
        </mxCell>
        <mxCell id="d_pu53hUmGRTe69JMyzy-4" value="account&lt;br&gt;playlist" style="rounded=1;arcSize=10;whiteSpace=wrap;html=1;align=center;sketch=1;fillColor=#fff2cc;strokeColor=#d6b656;fontFamily=Space Mono;fontSource=https%3A%2F%2Ffonts.googleapis.com%2Fcss%3Ffamily%3DSpace%2BMono;fontSize=27;" parent="1" vertex="1">
          <mxGeometry x="220.5" y="-950" width="138" height="74" as="geometry" />
        </mxCell>
        <mxCell id="d_pu53hUmGRTe69JMyzy-7" value="" style="endArrow=none;dashed=1;html=1;rounded=0;fontSize=18;fillColor=#dae8fc;strokeColor=#6c8ebf;strokeWidth=4;fontFamily=Space Mono;fontSource=https%3A%2F%2Ffonts.googleapis.com%2Fcss%3Ffamily%3DSpace%2BMono;" parent="1" edge="1">
          <mxGeometry width="50" height="50" relative="1" as="geometry">
            <mxPoint x="445" y="-13" as="sourcePoint" />
            <mxPoint x="445" y="-1195" as="targetPoint" />
          </mxGeometry>
        </mxCell>
        <mxCell id="d_pu53hUmGRTe69JMyzy-9" value="beat_data" style="shape=table;startSize=30;container=1;collapsible=1;childLayout=tableLayout;fixedRows=1;rowLines=0;fontStyle=1;align=center;resizeLast=1;sketch=1;fontSize=18;fillColor=#e1d5e7;strokeColor=#9673a6;fontFamily=Space Mono;fontSource=https%3A%2F%2Ffonts.googleapis.com%2Fcss%3Ffamily%3DSpace%2BMono;" parent="1" vertex="1">
          <mxGeometry x="653" y="-566" width="390" height="370" as="geometry" />
        </mxCell>
        <mxCell id="d_pu53hUmGRTe69JMyzy-10" value="" style="shape=tableRow;horizontal=0;startSize=0;swimlaneHead=0;swimlaneBody=0;fillColor=none;collapsible=0;dropTarget=0;points=[[0,0.5],[1,0.5]];portConstraint=eastwest;top=0;left=0;right=0;bottom=1;sketch=1;fontSize=18;fontFamily=Space Mono;fontSource=https%3A%2F%2Ffonts.googleapis.com%2Fcss%3Ffamily%3DSpace%2BMono;" parent="d_pu53hUmGRTe69JMyzy-9" vertex="1">
          <mxGeometry y="30" width="390" height="30" as="geometry" />
        </mxCell>
        <mxCell id="d_pu53hUmGRTe69JMyzy-11" value="PK" style="shape=partialRectangle;connectable=0;fillColor=none;top=0;left=0;bottom=0;right=0;fontStyle=1;overflow=hidden;sketch=1;fontSize=18;fontFamily=Space Mono;fontSource=https%3A%2F%2Ffonts.googleapis.com%2Fcss%3Ffamily%3DSpace%2BMono;" parent="d_pu53hUmGRTe69JMyzy-10" vertex="1">
          <mxGeometry width="30" height="30" as="geometry">
            <mxRectangle width="30" height="30" as="alternateBounds" />
          </mxGeometry>
        </mxCell>
        <mxCell id="d_pu53hUmGRTe69JMyzy-12" value="id" style="shape=partialRectangle;connectable=0;fillColor=none;top=0;left=0;bottom=0;right=0;align=left;spacingLeft=6;fontStyle=1;overflow=hidden;sketch=1;fontSize=18;fontFamily=Space Mono;fontSource=https%3A%2F%2Ffonts.googleapis.com%2Fcss%3Ffamily%3DSpace%2BMono;" parent="d_pu53hUmGRTe69JMyzy-10" vertex="1">
          <mxGeometry x="30" width="130" height="30" as="geometry">
            <mxRectangle width="130" height="30" as="alternateBounds" />
          </mxGeometry>
        </mxCell>
        <mxCell id="d_pu53hUmGRTe69JMyzy-34" value="BIGSERIAL" style="shape=partialRectangle;connectable=0;fillColor=none;top=0;left=0;bottom=0;right=0;align=left;spacingLeft=6;fontStyle=1;overflow=hidden;sketch=1;fontSize=18;fontFamily=Space Mono;fontSource=https%3A%2F%2Ffonts.googleapis.com%2Fcss%3Ffamily%3DSpace%2BMono;" parent="d_pu53hUmGRTe69JMyzy-10" vertex="1">
          <mxGeometry x="160" width="120" height="30" as="geometry">
            <mxRectangle width="120" height="30" as="alternateBounds" />
          </mxGeometry>
        </mxCell>
        <mxCell id="d_pu53hUmGRTe69JMyzy-59" style="shape=partialRectangle;connectable=0;fillColor=none;top=0;left=0;bottom=0;right=0;align=left;spacingLeft=6;fontStyle=1;overflow=hidden;sketch=1;fontSize=18;fontFamily=Space Mono;fontSource=https%3A%2F%2Ffonts.googleapis.com%2Fcss%3Ffamily%3DSpace%2BMono;" parent="d_pu53hUmGRTe69JMyzy-10" vertex="1">
          <mxGeometry x="280" width="110" height="30" as="geometry">
            <mxRectangle width="110" height="30" as="alternateBounds" />
          </mxGeometry>
        </mxCell>
        <mxCell id="9T4gCMgOc6zHNCj7xmCQ-45" style="shape=tableRow;horizontal=0;startSize=0;swimlaneHead=0;swimlaneBody=0;fillColor=none;collapsible=0;dropTarget=0;points=[[0,0.5],[1,0.5]];portConstraint=eastwest;top=0;left=0;right=0;bottom=0;sketch=1;fontSize=18;fontFamily=Space Mono;fontSource=https%3A%2F%2Ffonts.googleapis.com%2Fcss%3Ffamily%3DSpace%2BMono;" vertex="1" parent="d_pu53hUmGRTe69JMyzy-9">
          <mxGeometry y="60" width="390" height="30" as="geometry" />
        </mxCell>
        <mxCell id="9T4gCMgOc6zHNCj7xmCQ-46" value="FG" style="shape=partialRectangle;connectable=0;fillColor=none;top=0;left=0;bottom=0;right=0;editable=1;overflow=hidden;sketch=1;fontSize=18;fontFamily=Space Mono;fontSource=https%3A%2F%2Ffonts.googleapis.com%2Fcss%3Ffamily%3DSpace%2BMono;" vertex="1" parent="9T4gCMgOc6zHNCj7xmCQ-45">
          <mxGeometry width="30" height="30" as="geometry">
            <mxRectangle width="30" height="30" as="alternateBounds" />
          </mxGeometry>
        </mxCell>
        <mxCell id="9T4gCMgOc6zHNCj7xmCQ-47" value="beat_id" style="shape=partialRectangle;connectable=0;fillColor=none;top=0;left=0;bottom=0;right=0;align=left;spacingLeft=6;overflow=hidden;sketch=1;fontSize=18;fontFamily=Space Mono;fontSource=https%3A%2F%2Ffonts.googleapis.com%2Fcss%3Ffamily%3DSpace%2BMono;" vertex="1" parent="9T4gCMgOc6zHNCj7xmCQ-45">
          <mxGeometry x="30" width="130" height="30" as="geometry">
            <mxRectangle width="130" height="30" as="alternateBounds" />
          </mxGeometry>
        </mxCell>
        <mxCell id="9T4gCMgOc6zHNCj7xmCQ-48" value="BIGINT" style="shape=partialRectangle;connectable=0;fillColor=none;top=0;left=0;bottom=0;right=0;align=left;spacingLeft=6;overflow=hidden;sketch=1;fontSize=18;fontFamily=Space Mono;fontSource=https%3A%2F%2Ffonts.googleapis.com%2Fcss%3Ffamily%3DSpace%2BMono;" vertex="1" parent="9T4gCMgOc6zHNCj7xmCQ-45">
          <mxGeometry x="160" width="120" height="30" as="geometry">
            <mxRectangle width="120" height="30" as="alternateBounds" />
          </mxGeometry>
        </mxCell>
        <mxCell id="9T4gCMgOc6zHNCj7xmCQ-49" value="NOT NULL" style="shape=partialRectangle;connectable=0;fillColor=none;top=0;left=0;bottom=0;right=0;align=left;spacingLeft=6;overflow=hidden;sketch=1;fontSize=18;fontFamily=Space Mono;fontSource=https%3A%2F%2Ffonts.googleapis.com%2Fcss%3Ffamily%3DSpace%2BMono;" vertex="1" parent="9T4gCMgOc6zHNCj7xmCQ-45">
          <mxGeometry x="280" width="110" height="30" as="geometry">
            <mxRectangle width="110" height="30" as="alternateBounds" />
          </mxGeometry>
        </mxCell>
        <mxCell id="d_pu53hUmGRTe69JMyzy-42" style="shape=tableRow;horizontal=0;startSize=0;swimlaneHead=0;swimlaneBody=0;fillColor=none;collapsible=0;dropTarget=0;points=[[0,0.5],[1,0.5]];portConstraint=eastwest;top=0;left=0;right=0;bottom=0;sketch=1;fontSize=18;fontFamily=Space Mono;fontSource=https%3A%2F%2Ffonts.googleapis.com%2Fcss%3Ffamily%3DSpace%2BMono;" parent="d_pu53hUmGRTe69JMyzy-9" vertex="1">
          <mxGeometry y="90" width="390" height="30" as="geometry" />
        </mxCell>
        <mxCell id="d_pu53hUmGRTe69JMyzy-43" style="shape=partialRectangle;connectable=0;fillColor=none;top=0;left=0;bottom=0;right=0;editable=1;overflow=hidden;sketch=1;fontSize=18;fontFamily=Space Mono;fontSource=https%3A%2F%2Ffonts.googleapis.com%2Fcss%3Ffamily%3DSpace%2BMono;" parent="d_pu53hUmGRTe69JMyzy-42" vertex="1">
          <mxGeometry width="30" height="30" as="geometry">
            <mxRectangle width="30" height="30" as="alternateBounds" />
          </mxGeometry>
        </mxCell>
        <mxCell id="d_pu53hUmGRTe69JMyzy-44" value="name" style="shape=partialRectangle;connectable=0;fillColor=none;top=0;left=0;bottom=0;right=0;align=left;spacingLeft=6;overflow=hidden;sketch=1;fontSize=18;fontFamily=Space Mono;fontSource=https%3A%2F%2Ffonts.googleapis.com%2Fcss%3Ffamily%3DSpace%2BMono;" parent="d_pu53hUmGRTe69JMyzy-42" vertex="1">
          <mxGeometry x="30" width="130" height="30" as="geometry">
            <mxRectangle width="130" height="30" as="alternateBounds" />
          </mxGeometry>
        </mxCell>
        <mxCell id="d_pu53hUmGRTe69JMyzy-45" value="TEXT" style="shape=partialRectangle;connectable=0;fillColor=none;top=0;left=0;bottom=0;right=0;align=left;spacingLeft=6;overflow=hidden;sketch=1;fontSize=18;fontFamily=Space Mono;fontSource=https%3A%2F%2Ffonts.googleapis.com%2Fcss%3Ffamily%3DSpace%2BMono;" parent="d_pu53hUmGRTe69JMyzy-42" vertex="1">
          <mxGeometry x="160" width="120" height="30" as="geometry">
            <mxRectangle width="120" height="30" as="alternateBounds" />
          </mxGeometry>
        </mxCell>
        <mxCell id="d_pu53hUmGRTe69JMyzy-60" value="NOT NULL" style="shape=partialRectangle;connectable=0;fillColor=none;top=0;left=0;bottom=0;right=0;align=left;spacingLeft=6;overflow=hidden;sketch=1;fontSize=18;fontFamily=Space Mono;fontSource=https%3A%2F%2Ffonts.googleapis.com%2Fcss%3Ffamily%3DSpace%2BMono;" parent="d_pu53hUmGRTe69JMyzy-42" vertex="1">
          <mxGeometry x="280" width="110" height="30" as="geometry">
            <mxRectangle width="110" height="30" as="alternateBounds" />
          </mxGeometry>
        </mxCell>
        <mxCell id="d_pu53hUmGRTe69JMyzy-13" value="" style="shape=tableRow;horizontal=0;startSize=0;swimlaneHead=0;swimlaneBody=0;fillColor=none;collapsible=0;dropTarget=0;points=[[0,0.5],[1,0.5]];portConstraint=eastwest;top=0;left=0;right=0;bottom=0;sketch=1;fontSize=18;fontFamily=Space Mono;fontSource=https%3A%2F%2Ffonts.googleapis.com%2Fcss%3Ffamily%3DSpace%2BMono;" parent="d_pu53hUmGRTe69JMyzy-9" vertex="1">
          <mxGeometry y="120" width="390" height="30" as="geometry" />
        </mxCell>
        <mxCell id="d_pu53hUmGRTe69JMyzy-14" value="" style="shape=partialRectangle;connectable=0;fillColor=none;top=0;left=0;bottom=0;right=0;editable=1;overflow=hidden;sketch=1;fontSize=18;fontFamily=Space Mono;fontSource=https%3A%2F%2Ffonts.googleapis.com%2Fcss%3Ffamily%3DSpace%2BMono;" parent="d_pu53hUmGRTe69JMyzy-13" vertex="1">
          <mxGeometry width="30" height="30" as="geometry">
            <mxRectangle width="30" height="30" as="alternateBounds" />
          </mxGeometry>
        </mxCell>
        <mxCell id="d_pu53hUmGRTe69JMyzy-15" value="bpm" style="shape=partialRectangle;connectable=0;fillColor=none;top=0;left=0;bottom=0;right=0;align=left;spacingLeft=6;overflow=hidden;sketch=1;fontSize=18;fontFamily=Space Mono;fontSource=https%3A%2F%2Ffonts.googleapis.com%2Fcss%3Ffamily%3DSpace%2BMono;" parent="d_pu53hUmGRTe69JMyzy-13" vertex="1">
          <mxGeometry x="30" width="130" height="30" as="geometry">
            <mxRectangle width="130" height="30" as="alternateBounds" />
          </mxGeometry>
        </mxCell>
        <mxCell id="d_pu53hUmGRTe69JMyzy-35" value="TEXT" style="shape=partialRectangle;connectable=0;fillColor=none;top=0;left=0;bottom=0;right=0;align=left;spacingLeft=6;overflow=hidden;sketch=1;fontSize=18;fontFamily=Space Mono;fontSource=https%3A%2F%2Ffonts.googleapis.com%2Fcss%3Ffamily%3DSpace%2BMono;" parent="d_pu53hUmGRTe69JMyzy-13" vertex="1">
          <mxGeometry x="160" width="120" height="30" as="geometry">
            <mxRectangle width="120" height="30" as="alternateBounds" />
          </mxGeometry>
        </mxCell>
        <mxCell id="d_pu53hUmGRTe69JMyzy-61" value="NOT NULL" style="shape=partialRectangle;connectable=0;fillColor=none;top=0;left=0;bottom=0;right=0;align=left;spacingLeft=6;overflow=hidden;sketch=1;fontSize=18;fontFamily=Space Mono;fontSource=https%3A%2F%2Ffonts.googleapis.com%2Fcss%3Ffamily%3DSpace%2BMono;" parent="d_pu53hUmGRTe69JMyzy-13" vertex="1">
          <mxGeometry x="280" width="110" height="30" as="geometry">
            <mxRectangle width="110" height="30" as="alternateBounds" />
          </mxGeometry>
        </mxCell>
        <mxCell id="d_pu53hUmGRTe69JMyzy-16" value="" style="shape=tableRow;horizontal=0;startSize=0;swimlaneHead=0;swimlaneBody=0;fillColor=none;collapsible=0;dropTarget=0;points=[[0,0.5],[1,0.5]];portConstraint=eastwest;top=0;left=0;right=0;bottom=0;sketch=1;fontSize=18;fontFamily=Space Mono;fontSource=https%3A%2F%2Ffonts.googleapis.com%2Fcss%3Ffamily%3DSpace%2BMono;" parent="d_pu53hUmGRTe69JMyzy-9" vertex="1">
          <mxGeometry y="150" width="390" height="30" as="geometry" />
        </mxCell>
        <mxCell id="d_pu53hUmGRTe69JMyzy-17" value="" style="shape=partialRectangle;connectable=0;fillColor=none;top=0;left=0;bottom=0;right=0;editable=1;overflow=hidden;sketch=1;fontSize=18;fontFamily=Space Mono;fontSource=https%3A%2F%2Ffonts.googleapis.com%2Fcss%3Ffamily%3DSpace%2BMono;" parent="d_pu53hUmGRTe69JMyzy-16" vertex="1">
          <mxGeometry width="30" height="30" as="geometry">
            <mxRectangle width="30" height="30" as="alternateBounds" />
          </mxGeometry>
        </mxCell>
        <mxCell id="d_pu53hUmGRTe69JMyzy-18" value="key" style="shape=partialRectangle;connectable=0;fillColor=none;top=0;left=0;bottom=0;right=0;align=left;spacingLeft=6;overflow=hidden;sketch=1;fontSize=18;fontFamily=Space Mono;fontSource=https%3A%2F%2Ffonts.googleapis.com%2Fcss%3Ffamily%3DSpace%2BMono;" parent="d_pu53hUmGRTe69JMyzy-16" vertex="1">
          <mxGeometry x="30" width="130" height="30" as="geometry">
            <mxRectangle width="130" height="30" as="alternateBounds" />
          </mxGeometry>
        </mxCell>
        <mxCell id="d_pu53hUmGRTe69JMyzy-36" value="TEXT" style="shape=partialRectangle;connectable=0;fillColor=none;top=0;left=0;bottom=0;right=0;align=left;spacingLeft=6;overflow=hidden;sketch=1;fontSize=18;fontFamily=Space Mono;fontSource=https%3A%2F%2Ffonts.googleapis.com%2Fcss%3Ffamily%3DSpace%2BMono;" parent="d_pu53hUmGRTe69JMyzy-16" vertex="1">
          <mxGeometry x="160" width="120" height="30" as="geometry">
            <mxRectangle width="120" height="30" as="alternateBounds" />
          </mxGeometry>
        </mxCell>
        <mxCell id="d_pu53hUmGRTe69JMyzy-62" value="NOT NULL" style="shape=partialRectangle;connectable=0;fillColor=none;top=0;left=0;bottom=0;right=0;align=left;spacingLeft=6;overflow=hidden;sketch=1;fontSize=18;fontFamily=Space Mono;fontSource=https%3A%2F%2Ffonts.googleapis.com%2Fcss%3Ffamily%3DSpace%2BMono;" parent="d_pu53hUmGRTe69JMyzy-16" vertex="1">
          <mxGeometry x="280" width="110" height="30" as="geometry">
            <mxRectangle width="110" height="30" as="alternateBounds" />
          </mxGeometry>
        </mxCell>
        <mxCell id="d_pu53hUmGRTe69JMyzy-25" style="shape=tableRow;horizontal=0;startSize=0;swimlaneHead=0;swimlaneBody=0;fillColor=none;collapsible=0;dropTarget=0;points=[[0,0.5],[1,0.5]];portConstraint=eastwest;top=0;left=0;right=0;bottom=0;sketch=1;fontSize=18;fontFamily=Space Mono;fontSource=https%3A%2F%2Ffonts.googleapis.com%2Fcss%3Ffamily%3DSpace%2BMono;" parent="d_pu53hUmGRTe69JMyzy-9" vertex="1">
          <mxGeometry y="180" width="390" height="30" as="geometry" />
        </mxCell>
        <mxCell id="d_pu53hUmGRTe69JMyzy-26" style="shape=partialRectangle;connectable=0;fillColor=none;top=0;left=0;bottom=0;right=0;editable=1;overflow=hidden;sketch=1;fontSize=18;fontFamily=Space Mono;fontSource=https%3A%2F%2Ffonts.googleapis.com%2Fcss%3Ffamily%3DSpace%2BMono;" parent="d_pu53hUmGRTe69JMyzy-25" vertex="1">
          <mxGeometry width="30" height="30" as="geometry">
            <mxRectangle width="30" height="30" as="alternateBounds" />
          </mxGeometry>
        </mxCell>
        <mxCell id="d_pu53hUmGRTe69JMyzy-27" value="photo_path" style="shape=partialRectangle;connectable=0;fillColor=none;top=0;left=0;bottom=0;right=0;align=left;spacingLeft=6;overflow=hidden;sketch=1;fontSize=18;fontFamily=Space Mono;fontSource=https%3A%2F%2Ffonts.googleapis.com%2Fcss%3Ffamily%3DSpace%2BMono;" parent="d_pu53hUmGRTe69JMyzy-25" vertex="1">
          <mxGeometry x="30" width="130" height="30" as="geometry">
            <mxRectangle width="130" height="30" as="alternateBounds" />
          </mxGeometry>
        </mxCell>
        <mxCell id="d_pu53hUmGRTe69JMyzy-37" value="TEXT" style="shape=partialRectangle;connectable=0;fillColor=none;top=0;left=0;bottom=0;right=0;align=left;spacingLeft=6;overflow=hidden;sketch=1;fontSize=18;fontFamily=Space Mono;fontSource=https%3A%2F%2Ffonts.googleapis.com%2Fcss%3Ffamily%3DSpace%2BMono;" parent="d_pu53hUmGRTe69JMyzy-25" vertex="1">
          <mxGeometry x="160" width="120" height="30" as="geometry">
            <mxRectangle width="120" height="30" as="alternateBounds" />
          </mxGeometry>
        </mxCell>
        <mxCell id="d_pu53hUmGRTe69JMyzy-63" value="NOT NULL" style="shape=partialRectangle;connectable=0;fillColor=none;top=0;left=0;bottom=0;right=0;align=left;spacingLeft=6;overflow=hidden;sketch=1;fontSize=18;fontFamily=Space Mono;fontSource=https%3A%2F%2Ffonts.googleapis.com%2Fcss%3Ffamily%3DSpace%2BMono;" parent="d_pu53hUmGRTe69JMyzy-25" vertex="1">
          <mxGeometry x="280" width="110" height="30" as="geometry">
            <mxRectangle width="110" height="30" as="alternateBounds" />
          </mxGeometry>
        </mxCell>
        <mxCell id="d_pu53hUmGRTe69JMyzy-28" style="shape=tableRow;horizontal=0;startSize=0;swimlaneHead=0;swimlaneBody=0;fillColor=none;collapsible=0;dropTarget=0;points=[[0,0.5],[1,0.5]];portConstraint=eastwest;top=0;left=0;right=0;bottom=0;sketch=1;fontSize=18;fontFamily=Space Mono;fontSource=https%3A%2F%2Ffonts.googleapis.com%2Fcss%3Ffamily%3DSpace%2BMono;" parent="d_pu53hUmGRTe69JMyzy-9" vertex="1">
          <mxGeometry y="210" width="390" height="30" as="geometry" />
        </mxCell>
        <mxCell id="d_pu53hUmGRTe69JMyzy-29" style="shape=partialRectangle;connectable=0;fillColor=none;top=0;left=0;bottom=0;right=0;editable=1;overflow=hidden;sketch=1;fontSize=18;fontFamily=Space Mono;fontSource=https%3A%2F%2Ffonts.googleapis.com%2Fcss%3Ffamily%3DSpace%2BMono;" parent="d_pu53hUmGRTe69JMyzy-28" vertex="1">
          <mxGeometry width="30" height="30" as="geometry">
            <mxRectangle width="30" height="30" as="alternateBounds" />
          </mxGeometry>
        </mxCell>
        <mxCell id="d_pu53hUmGRTe69JMyzy-30" value="mp3_path" style="shape=partialRectangle;connectable=0;fillColor=none;top=0;left=0;bottom=0;right=0;align=left;spacingLeft=6;overflow=hidden;sketch=1;fontSize=18;fontFamily=Space Mono;fontSource=https%3A%2F%2Ffonts.googleapis.com%2Fcss%3Ffamily%3DSpace%2BMono;" parent="d_pu53hUmGRTe69JMyzy-28" vertex="1">
          <mxGeometry x="30" width="130" height="30" as="geometry">
            <mxRectangle width="130" height="30" as="alternateBounds" />
          </mxGeometry>
        </mxCell>
        <mxCell id="d_pu53hUmGRTe69JMyzy-38" value="TEXT" style="shape=partialRectangle;connectable=0;fillColor=none;top=0;left=0;bottom=0;right=0;align=left;spacingLeft=6;overflow=hidden;sketch=1;fontSize=18;fontFamily=Space Mono;fontSource=https%3A%2F%2Ffonts.googleapis.com%2Fcss%3Ffamily%3DSpace%2BMono;" parent="d_pu53hUmGRTe69JMyzy-28" vertex="1">
          <mxGeometry x="160" width="120" height="30" as="geometry">
            <mxRectangle width="120" height="30" as="alternateBounds" />
          </mxGeometry>
        </mxCell>
        <mxCell id="d_pu53hUmGRTe69JMyzy-64" value="NOT NULL" style="shape=partialRectangle;connectable=0;fillColor=none;top=0;left=0;bottom=0;right=0;align=left;spacingLeft=6;overflow=hidden;sketch=1;fontSize=18;fontFamily=Space Mono;fontSource=https%3A%2F%2Ffonts.googleapis.com%2Fcss%3Ffamily%3DSpace%2BMono;" parent="d_pu53hUmGRTe69JMyzy-28" vertex="1">
          <mxGeometry x="280" width="110" height="30" as="geometry">
            <mxRectangle width="110" height="30" as="alternateBounds" />
          </mxGeometry>
        </mxCell>
        <mxCell id="d_pu53hUmGRTe69JMyzy-31" style="shape=tableRow;horizontal=0;startSize=0;swimlaneHead=0;swimlaneBody=0;fillColor=none;collapsible=0;dropTarget=0;points=[[0,0.5],[1,0.5]];portConstraint=eastwest;top=0;left=0;right=0;bottom=0;sketch=1;fontSize=18;fontFamily=Space Mono;fontSource=https%3A%2F%2Ffonts.googleapis.com%2Fcss%3Ffamily%3DSpace%2BMono;" parent="d_pu53hUmGRTe69JMyzy-9" vertex="1">
          <mxGeometry y="240" width="390" height="30" as="geometry" />
        </mxCell>
        <mxCell id="d_pu53hUmGRTe69JMyzy-32" style="shape=partialRectangle;connectable=0;fillColor=none;top=0;left=0;bottom=0;right=0;editable=1;overflow=hidden;sketch=1;fontSize=18;fontFamily=Space Mono;fontSource=https%3A%2F%2Ffonts.googleapis.com%2Fcss%3Ffamily%3DSpace%2BMono;" parent="d_pu53hUmGRTe69JMyzy-31" vertex="1">
          <mxGeometry width="30" height="30" as="geometry">
            <mxRectangle width="30" height="30" as="alternateBounds" />
          </mxGeometry>
        </mxCell>
        <mxCell id="d_pu53hUmGRTe69JMyzy-33" value="wav_path" style="shape=partialRectangle;connectable=0;fillColor=none;top=0;left=0;bottom=0;right=0;align=left;spacingLeft=6;overflow=hidden;sketch=1;fontSize=18;fontFamily=Space Mono;fontSource=https%3A%2F%2Ffonts.googleapis.com%2Fcss%3Ffamily%3DSpace%2BMono;" parent="d_pu53hUmGRTe69JMyzy-31" vertex="1">
          <mxGeometry x="30" width="130" height="30" as="geometry">
            <mxRectangle width="130" height="30" as="alternateBounds" />
          </mxGeometry>
        </mxCell>
        <mxCell id="d_pu53hUmGRTe69JMyzy-39" value="TEXT" style="shape=partialRectangle;connectable=0;fillColor=none;top=0;left=0;bottom=0;right=0;align=left;spacingLeft=6;overflow=hidden;sketch=1;fontSize=18;fontFamily=Space Mono;fontSource=https%3A%2F%2Ffonts.googleapis.com%2Fcss%3Ffamily%3DSpace%2BMono;" parent="d_pu53hUmGRTe69JMyzy-31" vertex="1">
          <mxGeometry x="160" width="120" height="30" as="geometry">
            <mxRectangle width="120" height="30" as="alternateBounds" />
          </mxGeometry>
        </mxCell>
        <mxCell id="d_pu53hUmGRTe69JMyzy-65" style="shape=partialRectangle;connectable=0;fillColor=none;top=0;left=0;bottom=0;right=0;align=left;spacingLeft=6;overflow=hidden;sketch=1;fontSize=18;fontFamily=Space Mono;fontSource=https%3A%2F%2Ffonts.googleapis.com%2Fcss%3Ffamily%3DSpace%2BMono;" parent="d_pu53hUmGRTe69JMyzy-31" vertex="1">
          <mxGeometry x="280" width="110" height="30" as="geometry">
            <mxRectangle width="110" height="30" as="alternateBounds" />
          </mxGeometry>
        </mxCell>
        <mxCell id="d_pu53hUmGRTe69JMyzy-232" style="shape=tableRow;horizontal=0;startSize=0;swimlaneHead=0;swimlaneBody=0;fillColor=none;collapsible=0;dropTarget=0;points=[[0,0.5],[1,0.5]];portConstraint=eastwest;top=0;left=0;right=0;bottom=0;sketch=1;fontSize=18;fontFamily=Space Mono;fontSource=https%3A%2F%2Ffonts.googleapis.com%2Fcss%3Ffamily%3DSpace%2BMono;" parent="d_pu53hUmGRTe69JMyzy-9" vertex="1">
          <mxGeometry y="270" width="390" height="30" as="geometry" />
        </mxCell>
        <mxCell id="d_pu53hUmGRTe69JMyzy-233" style="shape=partialRectangle;connectable=0;fillColor=none;top=0;left=0;bottom=0;right=0;editable=1;overflow=hidden;sketch=1;fontSize=18;fontFamily=Space Mono;fontSource=https%3A%2F%2Ffonts.googleapis.com%2Fcss%3Ffamily%3DSpace%2BMono;" parent="d_pu53hUmGRTe69JMyzy-232" vertex="1">
          <mxGeometry width="30" height="30" as="geometry">
            <mxRectangle width="30" height="30" as="alternateBounds" />
          </mxGeometry>
        </mxCell>
        <mxCell id="d_pu53hUmGRTe69JMyzy-234" value="like" style="shape=partialRectangle;connectable=0;fillColor=none;top=0;left=0;bottom=0;right=0;align=left;spacingLeft=6;overflow=hidden;sketch=1;fontSize=18;fontFamily=Space Mono;fontSource=https%3A%2F%2Ffonts.googleapis.com%2Fcss%3Ffamily%3DSpace%2BMono;" parent="d_pu53hUmGRTe69JMyzy-232" vertex="1">
          <mxGeometry x="30" width="130" height="30" as="geometry">
            <mxRectangle width="130" height="30" as="alternateBounds" />
          </mxGeometry>
        </mxCell>
        <mxCell id="d_pu53hUmGRTe69JMyzy-235" value="INT" style="shape=partialRectangle;connectable=0;fillColor=none;top=0;left=0;bottom=0;right=0;align=left;spacingLeft=6;overflow=hidden;sketch=1;fontSize=18;fontFamily=Space Mono;fontSource=https%3A%2F%2Ffonts.googleapis.com%2Fcss%3Ffamily%3DSpace%2BMono;" parent="d_pu53hUmGRTe69JMyzy-232" vertex="1">
          <mxGeometry x="160" width="120" height="30" as="geometry">
            <mxRectangle width="120" height="30" as="alternateBounds" />
          </mxGeometry>
        </mxCell>
        <mxCell id="d_pu53hUmGRTe69JMyzy-236" style="shape=partialRectangle;connectable=0;fillColor=none;top=0;left=0;bottom=0;right=0;align=left;spacingLeft=6;overflow=hidden;sketch=1;fontSize=18;fontFamily=Space Mono;fontSource=https%3A%2F%2Ffonts.googleapis.com%2Fcss%3Ffamily%3DSpace%2BMono;" parent="d_pu53hUmGRTe69JMyzy-232" vertex="1">
          <mxGeometry x="280" width="110" height="30" as="geometry">
            <mxRectangle width="110" height="30" as="alternateBounds" />
          </mxGeometry>
        </mxCell>
        <mxCell id="d_pu53hUmGRTe69JMyzy-19" value="" style="shape=tableRow;horizontal=0;startSize=0;swimlaneHead=0;swimlaneBody=0;fillColor=none;collapsible=0;dropTarget=0;points=[[0,0.5],[1,0.5]];portConstraint=eastwest;top=0;left=0;right=0;bottom=0;sketch=1;fontSize=18;fontFamily=Space Mono;fontSource=https%3A%2F%2Ffonts.googleapis.com%2Fcss%3Ffamily%3DSpace%2BMono;" parent="d_pu53hUmGRTe69JMyzy-9" vertex="1">
          <mxGeometry y="300" width="390" height="30" as="geometry" />
        </mxCell>
        <mxCell id="d_pu53hUmGRTe69JMyzy-20" value="" style="shape=partialRectangle;connectable=0;fillColor=none;top=0;left=0;bottom=0;right=0;editable=1;overflow=hidden;sketch=1;fontSize=18;fontFamily=Space Mono;fontSource=https%3A%2F%2Ffonts.googleapis.com%2Fcss%3Ffamily%3DSpace%2BMono;" parent="d_pu53hUmGRTe69JMyzy-19" vertex="1">
          <mxGeometry width="30" height="30" as="geometry">
            <mxRectangle width="30" height="30" as="alternateBounds" />
          </mxGeometry>
        </mxCell>
        <mxCell id="d_pu53hUmGRTe69JMyzy-21" value="genre" style="shape=partialRectangle;connectable=0;fillColor=none;top=0;left=0;bottom=0;right=0;align=left;spacingLeft=6;overflow=hidden;sketch=1;fontSize=18;fontFamily=Space Mono;fontSource=https%3A%2F%2Ffonts.googleapis.com%2Fcss%3Ffamily%3DSpace%2BMono;" parent="d_pu53hUmGRTe69JMyzy-19" vertex="1">
          <mxGeometry x="30" width="130" height="30" as="geometry">
            <mxRectangle width="130" height="30" as="alternateBounds" />
          </mxGeometry>
        </mxCell>
        <mxCell id="d_pu53hUmGRTe69JMyzy-40" value="TEXT" style="shape=partialRectangle;connectable=0;fillColor=none;top=0;left=0;bottom=0;right=0;align=left;spacingLeft=6;overflow=hidden;sketch=1;fontSize=18;fontFamily=Space Mono;fontSource=https%3A%2F%2Ffonts.googleapis.com%2Fcss%3Ffamily%3DSpace%2BMono;" parent="d_pu53hUmGRTe69JMyzy-19" vertex="1">
          <mxGeometry x="160" width="120" height="30" as="geometry">
            <mxRectangle width="120" height="30" as="alternateBounds" />
          </mxGeometry>
        </mxCell>
        <mxCell id="d_pu53hUmGRTe69JMyzy-66" style="shape=partialRectangle;connectable=0;fillColor=none;top=0;left=0;bottom=0;right=0;align=left;spacingLeft=6;overflow=hidden;sketch=1;fontSize=18;fontFamily=Space Mono;fontSource=https%3A%2F%2Ffonts.googleapis.com%2Fcss%3Ffamily%3DSpace%2BMono;" parent="d_pu53hUmGRTe69JMyzy-19" vertex="1">
          <mxGeometry x="280" width="110" height="30" as="geometry">
            <mxRectangle width="110" height="30" as="alternateBounds" />
          </mxGeometry>
        </mxCell>
        <mxCell id="d_pu53hUmGRTe69JMyzy-22" style="shape=tableRow;horizontal=0;startSize=0;swimlaneHead=0;swimlaneBody=0;fillColor=none;collapsible=0;dropTarget=0;points=[[0,0.5],[1,0.5]];portConstraint=eastwest;top=0;left=0;right=0;bottom=0;sketch=1;fontSize=18;fontFamily=Space Mono;fontSource=https%3A%2F%2Ffonts.googleapis.com%2Fcss%3Ffamily%3DSpace%2BMono;" parent="d_pu53hUmGRTe69JMyzy-9" vertex="1">
          <mxGeometry y="330" width="390" height="30" as="geometry" />
        </mxCell>
        <mxCell id="d_pu53hUmGRTe69JMyzy-23" style="shape=partialRectangle;connectable=0;fillColor=none;top=0;left=0;bottom=0;right=0;editable=1;overflow=hidden;sketch=1;fontSize=18;fontFamily=Space Mono;fontSource=https%3A%2F%2Ffonts.googleapis.com%2Fcss%3Ffamily%3DSpace%2BMono;" parent="d_pu53hUmGRTe69JMyzy-22" vertex="1">
          <mxGeometry width="30" height="30" as="geometry">
            <mxRectangle width="30" height="30" as="alternateBounds" />
          </mxGeometry>
        </mxCell>
        <mxCell id="d_pu53hUmGRTe69JMyzy-24" value="mood" style="shape=partialRectangle;connectable=0;fillColor=none;top=0;left=0;bottom=0;right=0;align=left;spacingLeft=6;overflow=hidden;sketch=1;fontSize=18;fontFamily=Space Mono;fontSource=https%3A%2F%2Ffonts.googleapis.com%2Fcss%3Ffamily%3DSpace%2BMono;" parent="d_pu53hUmGRTe69JMyzy-22" vertex="1">
          <mxGeometry x="30" width="130" height="30" as="geometry">
            <mxRectangle width="130" height="30" as="alternateBounds" />
          </mxGeometry>
        </mxCell>
        <mxCell id="d_pu53hUmGRTe69JMyzy-41" value="TEXT" style="shape=partialRectangle;connectable=0;fillColor=none;top=0;left=0;bottom=0;right=0;align=left;spacingLeft=6;overflow=hidden;sketch=1;fontSize=18;fontFamily=Space Mono;fontSource=https%3A%2F%2Ffonts.googleapis.com%2Fcss%3Ffamily%3DSpace%2BMono;" parent="d_pu53hUmGRTe69JMyzy-22" vertex="1">
          <mxGeometry x="160" width="120" height="30" as="geometry">
            <mxRectangle width="120" height="30" as="alternateBounds" />
          </mxGeometry>
        </mxCell>
        <mxCell id="d_pu53hUmGRTe69JMyzy-67" style="shape=partialRectangle;connectable=0;fillColor=none;top=0;left=0;bottom=0;right=0;align=left;spacingLeft=6;overflow=hidden;sketch=1;fontSize=18;fontFamily=Space Mono;fontSource=https%3A%2F%2Ffonts.googleapis.com%2Fcss%3Ffamily%3DSpace%2BMono;" parent="d_pu53hUmGRTe69JMyzy-22" vertex="1">
          <mxGeometry x="280" width="110" height="30" as="geometry">
            <mxRectangle width="110" height="30" as="alternateBounds" />
          </mxGeometry>
        </mxCell>
        <mxCell id="d_pu53hUmGRTe69JMyzy-69" style="edgeStyle=orthogonalEdgeStyle;rounded=0;orthogonalLoop=1;jettySize=auto;html=1;fontSize=18;strokeWidth=3;endArrow=none;endFill=0;fillColor=#f8cecc;strokeColor=#b85450;exitX=0;exitY=0;exitDx=76;exitDy=0;exitPerimeter=0;fontFamily=Space Mono;fontSource=https%3A%2F%2Ffonts.googleapis.com%2Fcss%3Ffamily%3DSpace%2BMono;entryX=0.003;entryY=0.457;entryDx=0;entryDy=0;entryPerimeter=0;" parent="1" source="d_pu53hUmGRTe69JMyzy-68" edge="1" target="d_pu53hUmGRTe69JMyzy-19">
          <mxGeometry relative="1" as="geometry">
            <mxPoint x="602" y="-270" as="targetPoint" />
            <Array as="points">
              <mxPoint x="607" y="-252" />
            </Array>
          </mxGeometry>
        </mxCell>
        <mxCell id="d_pu53hUmGRTe69JMyzy-68" value="default: &quot;All&quot;" style="shape=note;size=20;whiteSpace=wrap;html=1;sketch=1;fontSize=18;fillColor=#f8cecc;strokeColor=#b85450;fontFamily=Space Mono;fontSource=https%3A%2F%2Ffonts.googleapis.com%2Fcss%3Ffamily%3DSpace%2BMono;" parent="1" vertex="1">
          <mxGeometry x="519" y="-252" width="96" height="100" as="geometry" />
        </mxCell>
        <mxCell id="d_pu53hUmGRTe69JMyzy-70" style="edgeStyle=orthogonalEdgeStyle;rounded=0;orthogonalLoop=1;jettySize=auto;html=1;fontSize=18;strokeWidth=3;endArrow=none;endFill=0;fillColor=#f8cecc;strokeColor=#b85450;fontFamily=Space Mono;fontSource=https%3A%2F%2Ffonts.googleapis.com%2Fcss%3Ffamily%3DSpace%2BMono;entryX=0;entryY=0.5;entryDx=0;entryDy=0;" parent="1" edge="1" target="d_pu53hUmGRTe69JMyzy-22">
          <mxGeometry relative="1" as="geometry">
            <mxPoint x="614" y="-221" as="sourcePoint" />
            <mxPoint x="602" y="-237" as="targetPoint" />
            <Array as="points">
              <mxPoint x="619" y="-221" />
              <mxPoint x="619" y="-221" />
            </Array>
          </mxGeometry>
        </mxCell>
        <mxCell id="d_pu53hUmGRTe69JMyzy-76" value="tag" style="shape=table;startSize=30;container=1;collapsible=1;childLayout=tableLayout;fixedRows=1;rowLines=0;fontStyle=1;align=center;resizeLast=1;sketch=1;fontSize=18;fillColor=#e1d5e7;strokeColor=#9673a6;fontFamily=Space Mono;fontSource=https%3A%2F%2Ffonts.googleapis.com%2Fcss%3Ffamily%3DSpace%2BMono;" parent="1" vertex="1">
          <mxGeometry x="653" y="-162" width="350" height="130" as="geometry" />
        </mxCell>
        <mxCell id="d_pu53hUmGRTe69JMyzy-77" value="" style="shape=tableRow;horizontal=0;startSize=0;swimlaneHead=0;swimlaneBody=0;fillColor=none;collapsible=0;dropTarget=0;points=[[0,0.5],[1,0.5]];portConstraint=eastwest;top=0;left=0;right=0;bottom=1;sketch=1;fontSize=18;fontFamily=Space Mono;fontSource=https%3A%2F%2Ffonts.googleapis.com%2Fcss%3Ffamily%3DSpace%2BMono;" parent="d_pu53hUmGRTe69JMyzy-76" vertex="1">
          <mxGeometry y="30" width="350" height="30" as="geometry" />
        </mxCell>
        <mxCell id="d_pu53hUmGRTe69JMyzy-78" value="PK" style="shape=partialRectangle;connectable=0;fillColor=none;top=0;left=0;bottom=0;right=0;fontStyle=1;overflow=hidden;sketch=1;fontSize=18;fontFamily=Space Mono;fontSource=https%3A%2F%2Ffonts.googleapis.com%2Fcss%3Ffamily%3DSpace%2BMono;" parent="d_pu53hUmGRTe69JMyzy-77" vertex="1">
          <mxGeometry width="30" height="30" as="geometry">
            <mxRectangle width="30" height="30" as="alternateBounds" />
          </mxGeometry>
        </mxCell>
        <mxCell id="d_pu53hUmGRTe69JMyzy-79" value="id" style="shape=partialRectangle;connectable=0;fillColor=none;top=0;left=0;bottom=0;right=0;align=left;spacingLeft=6;fontStyle=1;overflow=hidden;sketch=1;fontSize=18;fontFamily=Space Mono;fontSource=https%3A%2F%2Ffonts.googleapis.com%2Fcss%3Ffamily%3DSpace%2BMono;" parent="d_pu53hUmGRTe69JMyzy-77" vertex="1">
          <mxGeometry x="30" width="90" height="30" as="geometry">
            <mxRectangle width="90" height="30" as="alternateBounds" />
          </mxGeometry>
        </mxCell>
        <mxCell id="d_pu53hUmGRTe69JMyzy-80" value="BIGSERIAL" style="shape=partialRectangle;connectable=0;fillColor=none;top=0;left=0;bottom=0;right=0;align=left;spacingLeft=6;fontStyle=1;overflow=hidden;sketch=1;fontSize=18;fontFamily=Space Mono;fontSource=https%3A%2F%2Ffonts.googleapis.com%2Fcss%3Ffamily%3DSpace%2BMono;" parent="d_pu53hUmGRTe69JMyzy-77" vertex="1">
          <mxGeometry x="120" width="120" height="30" as="geometry">
            <mxRectangle width="120" height="30" as="alternateBounds" />
          </mxGeometry>
        </mxCell>
        <mxCell id="d_pu53hUmGRTe69JMyzy-81" style="shape=partialRectangle;connectable=0;fillColor=none;top=0;left=0;bottom=0;right=0;align=left;spacingLeft=6;fontStyle=1;overflow=hidden;sketch=1;fontSize=18;fontFamily=Space Mono;fontSource=https%3A%2F%2Ffonts.googleapis.com%2Fcss%3Ffamily%3DSpace%2BMono;" parent="d_pu53hUmGRTe69JMyzy-77" vertex="1">
          <mxGeometry x="240" width="110" height="30" as="geometry">
            <mxRectangle width="110" height="30" as="alternateBounds" />
          </mxGeometry>
        </mxCell>
        <mxCell id="d_pu53hUmGRTe69JMyzy-82" style="shape=tableRow;horizontal=0;startSize=0;swimlaneHead=0;swimlaneBody=0;fillColor=none;collapsible=0;dropTarget=0;points=[[0,0.5],[1,0.5]];portConstraint=eastwest;top=0;left=0;right=0;bottom=0;sketch=1;fontSize=18;fontFamily=Space Mono;fontSource=https%3A%2F%2Ffonts.googleapis.com%2Fcss%3Ffamily%3DSpace%2BMono;" parent="d_pu53hUmGRTe69JMyzy-76" vertex="1">
          <mxGeometry y="60" width="350" height="30" as="geometry" />
        </mxCell>
        <mxCell id="d_pu53hUmGRTe69JMyzy-83" value="FG" style="shape=partialRectangle;connectable=0;fillColor=none;top=0;left=0;bottom=0;right=0;editable=1;overflow=hidden;sketch=1;fontSize=18;fontFamily=Space Mono;fontSource=https%3A%2F%2Ffonts.googleapis.com%2Fcss%3Ffamily%3DSpace%2BMono;" parent="d_pu53hUmGRTe69JMyzy-82" vertex="1">
          <mxGeometry width="30" height="30" as="geometry">
            <mxRectangle width="30" height="30" as="alternateBounds" />
          </mxGeometry>
        </mxCell>
        <mxCell id="d_pu53hUmGRTe69JMyzy-84" value="beat_id" style="shape=partialRectangle;connectable=0;fillColor=none;top=0;left=0;bottom=0;right=0;align=left;spacingLeft=6;overflow=hidden;sketch=1;fontSize=18;fontFamily=Space Mono;fontSource=https%3A%2F%2Ffonts.googleapis.com%2Fcss%3Ffamily%3DSpace%2BMono;" parent="d_pu53hUmGRTe69JMyzy-82" vertex="1">
          <mxGeometry x="30" width="90" height="30" as="geometry">
            <mxRectangle width="90" height="30" as="alternateBounds" />
          </mxGeometry>
        </mxCell>
        <mxCell id="d_pu53hUmGRTe69JMyzy-85" value="BIGINT" style="shape=partialRectangle;connectable=0;fillColor=none;top=0;left=0;bottom=0;right=0;align=left;spacingLeft=6;overflow=hidden;sketch=1;fontSize=18;fontFamily=Space Mono;fontSource=https%3A%2F%2Ffonts.googleapis.com%2Fcss%3Ffamily%3DSpace%2BMono;" parent="d_pu53hUmGRTe69JMyzy-82" vertex="1">
          <mxGeometry x="120" width="120" height="30" as="geometry">
            <mxRectangle width="120" height="30" as="alternateBounds" />
          </mxGeometry>
        </mxCell>
        <mxCell id="d_pu53hUmGRTe69JMyzy-86" value="NOT NULL" style="shape=partialRectangle;connectable=0;fillColor=none;top=0;left=0;bottom=0;right=0;align=left;spacingLeft=6;overflow=hidden;sketch=1;fontSize=18;fontFamily=Space Mono;fontSource=https%3A%2F%2Ffonts.googleapis.com%2Fcss%3Ffamily%3DSpace%2BMono;" parent="d_pu53hUmGRTe69JMyzy-82" vertex="1">
          <mxGeometry x="240" width="110" height="30" as="geometry">
            <mxRectangle width="110" height="30" as="alternateBounds" />
          </mxGeometry>
        </mxCell>
        <mxCell id="d_pu53hUmGRTe69JMyzy-87" value="" style="shape=tableRow;horizontal=0;startSize=0;swimlaneHead=0;swimlaneBody=0;fillColor=none;collapsible=0;dropTarget=0;points=[[0,0.5],[1,0.5]];portConstraint=eastwest;top=0;left=0;right=0;bottom=0;sketch=1;fontSize=18;fontFamily=Space Mono;fontSource=https%3A%2F%2Ffonts.googleapis.com%2Fcss%3Ffamily%3DSpace%2BMono;" parent="d_pu53hUmGRTe69JMyzy-76" vertex="1">
          <mxGeometry y="90" width="350" height="30" as="geometry" />
        </mxCell>
        <mxCell id="d_pu53hUmGRTe69JMyzy-88" value="" style="shape=partialRectangle;connectable=0;fillColor=none;top=0;left=0;bottom=0;right=0;editable=1;overflow=hidden;sketch=1;fontSize=18;fontFamily=Space Mono;fontSource=https%3A%2F%2Ffonts.googleapis.com%2Fcss%3Ffamily%3DSpace%2BMono;" parent="d_pu53hUmGRTe69JMyzy-87" vertex="1">
          <mxGeometry width="30" height="30" as="geometry">
            <mxRectangle width="30" height="30" as="alternateBounds" />
          </mxGeometry>
        </mxCell>
        <mxCell id="d_pu53hUmGRTe69JMyzy-89" value="name" style="shape=partialRectangle;connectable=0;fillColor=none;top=0;left=0;bottom=0;right=0;align=left;spacingLeft=6;overflow=hidden;sketch=1;fontSize=18;fontFamily=Space Mono;fontSource=https%3A%2F%2Ffonts.googleapis.com%2Fcss%3Ffamily%3DSpace%2BMono;" parent="d_pu53hUmGRTe69JMyzy-87" vertex="1">
          <mxGeometry x="30" width="90" height="30" as="geometry">
            <mxRectangle width="90" height="30" as="alternateBounds" />
          </mxGeometry>
        </mxCell>
        <mxCell id="d_pu53hUmGRTe69JMyzy-90" value="TEXT" style="shape=partialRectangle;connectable=0;fillColor=none;top=0;left=0;bottom=0;right=0;align=left;spacingLeft=6;overflow=hidden;sketch=1;fontSize=18;fontFamily=Space Mono;fontSource=https%3A%2F%2Ffonts.googleapis.com%2Fcss%3Ffamily%3DSpace%2BMono;" parent="d_pu53hUmGRTe69JMyzy-87" vertex="1">
          <mxGeometry x="120" width="120" height="30" as="geometry">
            <mxRectangle width="120" height="30" as="alternateBounds" />
          </mxGeometry>
        </mxCell>
        <mxCell id="d_pu53hUmGRTe69JMyzy-91" value="NOT NULL" style="shape=partialRectangle;connectable=0;fillColor=none;top=0;left=0;bottom=0;right=0;align=left;spacingLeft=6;overflow=hidden;sketch=1;fontSize=18;fontFamily=Space Mono;fontSource=https%3A%2F%2Ffonts.googleapis.com%2Fcss%3Ffamily%3DSpace%2BMono;" parent="d_pu53hUmGRTe69JMyzy-87" vertex="1">
          <mxGeometry x="240" width="110" height="30" as="geometry">
            <mxRectangle width="110" height="30" as="alternateBounds" />
          </mxGeometry>
        </mxCell>
        <mxCell id="d_pu53hUmGRTe69JMyzy-133" style="edgeStyle=orthogonalEdgeStyle;rounded=0;orthogonalLoop=1;jettySize=auto;html=1;fontSize=18;endArrow=ERmandOne;endFill=0;strokeWidth=3;fillColor=#e1d5e7;strokeColor=#9673a6;startArrow=ERoneToMany;startFill=0;fontFamily=Space Mono;fontSource=https%3A%2F%2Ffonts.googleapis.com%2Fcss%3Ffamily%3DSpace%2BMono;exitX=1;exitY=0.5;exitDx=0;exitDy=0;entryX=1;entryY=-0.011;entryDx=0;entryDy=0;entryPerimeter=0;" parent="1" source="d_pu53hUmGRTe69JMyzy-82" target="9T4gCMgOc6zHNCj7xmCQ-40" edge="1">
          <mxGeometry relative="1" as="geometry">
            <mxPoint x="1184" y="-459" as="sourcePoint" />
            <Array as="points">
              <mxPoint x="1118" y="-77" />
              <mxPoint x="1118" y="-443" />
              <mxPoint x="1073" y="-443" />
            </Array>
            <mxPoint x="1087" y="-424" as="targetPoint" />
          </mxGeometry>
        </mxCell>
        <mxCell id="d_pu53hUmGRTe69JMyzy-134" value="price" style="shape=table;startSize=30;container=1;collapsible=1;childLayout=tableLayout;fixedRows=1;rowLines=0;fontStyle=1;align=center;resizeLast=1;sketch=1;fontSize=18;fillColor=#e1d5e7;strokeColor=#9673a6;fontFamily=Space Mono;fontSource=https%3A%2F%2Ffonts.googleapis.com%2Fcss%3Ffamily%3DSpace%2BMono;" parent="1" vertex="1">
          <mxGeometry x="1200.03" y="-278" width="530" height="190" as="geometry" />
        </mxCell>
        <mxCell id="d_pu53hUmGRTe69JMyzy-135" value="" style="shape=tableRow;horizontal=0;startSize=0;swimlaneHead=0;swimlaneBody=0;fillColor=none;collapsible=0;dropTarget=0;points=[[0,0.5],[1,0.5]];portConstraint=eastwest;top=0;left=0;right=0;bottom=1;sketch=1;fontSize=18;fontFamily=Space Mono;fontSource=https%3A%2F%2Ffonts.googleapis.com%2Fcss%3Ffamily%3DSpace%2BMono;" parent="d_pu53hUmGRTe69JMyzy-134" vertex="1">
          <mxGeometry y="30" width="530" height="30" as="geometry" />
        </mxCell>
        <mxCell id="d_pu53hUmGRTe69JMyzy-136" value="PK" style="shape=partialRectangle;connectable=0;fillColor=none;top=0;left=0;bottom=0;right=0;fontStyle=1;overflow=hidden;sketch=1;fontSize=18;fontFamily=Space Mono;fontSource=https%3A%2F%2Ffonts.googleapis.com%2Fcss%3Ffamily%3DSpace%2BMono;" parent="d_pu53hUmGRTe69JMyzy-135" vertex="1">
          <mxGeometry width="30" height="30" as="geometry">
            <mxRectangle width="30" height="30" as="alternateBounds" />
          </mxGeometry>
        </mxCell>
        <mxCell id="d_pu53hUmGRTe69JMyzy-137" value="id" style="shape=partialRectangle;connectable=0;fillColor=none;top=0;left=0;bottom=0;right=0;align=left;spacingLeft=6;fontStyle=1;overflow=hidden;sketch=1;fontSize=18;fontFamily=Space Mono;fontSource=https%3A%2F%2Ffonts.googleapis.com%2Fcss%3Ffamily%3DSpace%2BMono;" parent="d_pu53hUmGRTe69JMyzy-135" vertex="1">
          <mxGeometry x="30" width="180" height="30" as="geometry">
            <mxRectangle width="180" height="30" as="alternateBounds" />
          </mxGeometry>
        </mxCell>
        <mxCell id="d_pu53hUmGRTe69JMyzy-138" value="BIGSERIAL" style="shape=partialRectangle;connectable=0;fillColor=none;top=0;left=0;bottom=0;right=0;align=left;spacingLeft=6;fontStyle=1;overflow=hidden;sketch=1;fontSize=18;fontFamily=Space Mono;fontSource=https%3A%2F%2Ffonts.googleapis.com%2Fcss%3Ffamily%3DSpace%2BMono;" parent="d_pu53hUmGRTe69JMyzy-135" vertex="1">
          <mxGeometry x="210" width="120" height="30" as="geometry">
            <mxRectangle width="120" height="30" as="alternateBounds" />
          </mxGeometry>
        </mxCell>
        <mxCell id="d_pu53hUmGRTe69JMyzy-139" style="shape=partialRectangle;connectable=0;fillColor=none;top=0;left=0;bottom=0;right=0;align=left;spacingLeft=6;fontStyle=1;overflow=hidden;sketch=1;fontSize=18;fontFamily=Space Mono;fontSource=https%3A%2F%2Ffonts.googleapis.com%2Fcss%3Ffamily%3DSpace%2BMono;" parent="d_pu53hUmGRTe69JMyzy-135" vertex="1">
          <mxGeometry x="330" width="110" height="30" as="geometry">
            <mxRectangle width="110" height="30" as="alternateBounds" />
          </mxGeometry>
        </mxCell>
        <mxCell id="d_pu53hUmGRTe69JMyzy-237" style="shape=partialRectangle;connectable=0;fillColor=none;top=0;left=0;bottom=0;right=0;align=left;spacingLeft=6;fontStyle=1;overflow=hidden;sketch=1;fontSize=18;fontFamily=Space Mono;fontSource=https%3A%2F%2Ffonts.googleapis.com%2Fcss%3Ffamily%3DSpace%2BMono;" parent="d_pu53hUmGRTe69JMyzy-135" vertex="1">
          <mxGeometry x="440" width="90" height="30" as="geometry">
            <mxRectangle width="90" height="30" as="alternateBounds" />
          </mxGeometry>
        </mxCell>
        <mxCell id="d_pu53hUmGRTe69JMyzy-140" style="shape=tableRow;horizontal=0;startSize=0;swimlaneHead=0;swimlaneBody=0;fillColor=none;collapsible=0;dropTarget=0;points=[[0,0.5],[1,0.5]];portConstraint=eastwest;top=0;left=0;right=0;bottom=0;sketch=1;fontSize=18;fontFamily=Space Mono;fontSource=https%3A%2F%2Ffonts.googleapis.com%2Fcss%3Ffamily%3DSpace%2BMono;" parent="d_pu53hUmGRTe69JMyzy-134" vertex="1">
          <mxGeometry y="60" width="530" height="30" as="geometry" />
        </mxCell>
        <mxCell id="d_pu53hUmGRTe69JMyzy-141" value="FG" style="shape=partialRectangle;connectable=0;fillColor=none;top=0;left=0;bottom=0;right=0;editable=1;overflow=hidden;sketch=1;fontSize=18;fontFamily=Space Mono;fontSource=https%3A%2F%2Ffonts.googleapis.com%2Fcss%3Ffamily%3DSpace%2BMono;" parent="d_pu53hUmGRTe69JMyzy-140" vertex="1">
          <mxGeometry width="30" height="30" as="geometry">
            <mxRectangle width="30" height="30" as="alternateBounds" />
          </mxGeometry>
        </mxCell>
        <mxCell id="d_pu53hUmGRTe69JMyzy-142" value="beat_id" style="shape=partialRectangle;connectable=0;fillColor=none;top=0;left=0;bottom=0;right=0;align=left;spacingLeft=6;overflow=hidden;sketch=1;fontSize=18;fontFamily=Space Mono;fontSource=https%3A%2F%2Ffonts.googleapis.com%2Fcss%3Ffamily%3DSpace%2BMono;" parent="d_pu53hUmGRTe69JMyzy-140" vertex="1">
          <mxGeometry x="30" width="180" height="30" as="geometry">
            <mxRectangle width="180" height="30" as="alternateBounds" />
          </mxGeometry>
        </mxCell>
        <mxCell id="d_pu53hUmGRTe69JMyzy-143" value="BIGINT" style="shape=partialRectangle;connectable=0;fillColor=none;top=0;left=0;bottom=0;right=0;align=left;spacingLeft=6;overflow=hidden;sketch=1;fontSize=18;fontFamily=Space Mono;fontSource=https%3A%2F%2Ffonts.googleapis.com%2Fcss%3Ffamily%3DSpace%2BMono;" parent="d_pu53hUmGRTe69JMyzy-140" vertex="1">
          <mxGeometry x="210" width="120" height="30" as="geometry">
            <mxRectangle width="120" height="30" as="alternateBounds" />
          </mxGeometry>
        </mxCell>
        <mxCell id="d_pu53hUmGRTe69JMyzy-144" value="NOT NULL" style="shape=partialRectangle;connectable=0;fillColor=none;top=0;left=0;bottom=0;right=0;align=left;spacingLeft=6;overflow=hidden;sketch=1;fontSize=18;fontFamily=Space Mono;fontSource=https%3A%2F%2Ffonts.googleapis.com%2Fcss%3Ffamily%3DSpace%2BMono;" parent="d_pu53hUmGRTe69JMyzy-140" vertex="1">
          <mxGeometry x="330" width="110" height="30" as="geometry">
            <mxRectangle width="110" height="30" as="alternateBounds" />
          </mxGeometry>
        </mxCell>
        <mxCell id="d_pu53hUmGRTe69JMyzy-238" value="UNIQUE" style="shape=partialRectangle;connectable=0;fillColor=none;top=0;left=0;bottom=0;right=0;align=left;spacingLeft=6;overflow=hidden;sketch=1;fontSize=18;fontFamily=Space Mono;fontSource=https%3A%2F%2Ffonts.googleapis.com%2Fcss%3Ffamily%3DSpace%2BMono;" parent="d_pu53hUmGRTe69JMyzy-140" vertex="1">
          <mxGeometry x="440" width="90" height="30" as="geometry">
            <mxRectangle width="90" height="30" as="alternateBounds" />
          </mxGeometry>
        </mxCell>
        <mxCell id="d_pu53hUmGRTe69JMyzy-145" value="" style="shape=tableRow;horizontal=0;startSize=0;swimlaneHead=0;swimlaneBody=0;fillColor=none;collapsible=0;dropTarget=0;points=[[0,0.5],[1,0.5]];portConstraint=eastwest;top=0;left=0;right=0;bottom=0;sketch=1;fontSize=18;fontFamily=Space Mono;fontSource=https%3A%2F%2Ffonts.googleapis.com%2Fcss%3Ffamily%3DSpace%2BMono;" parent="d_pu53hUmGRTe69JMyzy-134" vertex="1">
          <mxGeometry y="90" width="530" height="30" as="geometry" />
        </mxCell>
        <mxCell id="d_pu53hUmGRTe69JMyzy-146" value="" style="shape=partialRectangle;connectable=0;fillColor=none;top=0;left=0;bottom=0;right=0;editable=1;overflow=hidden;sketch=1;fontSize=18;fontFamily=Space Mono;fontSource=https%3A%2F%2Ffonts.googleapis.com%2Fcss%3Ffamily%3DSpace%2BMono;" parent="d_pu53hUmGRTe69JMyzy-145" vertex="1">
          <mxGeometry width="30" height="30" as="geometry">
            <mxRectangle width="30" height="30" as="alternateBounds" />
          </mxGeometry>
        </mxCell>
        <mxCell id="d_pu53hUmGRTe69JMyzy-147" value="standtart_price" style="shape=partialRectangle;connectable=0;fillColor=none;top=0;left=0;bottom=0;right=0;align=left;spacingLeft=6;overflow=hidden;sketch=1;fontSize=18;fontFamily=Space Mono;fontSource=https%3A%2F%2Ffonts.googleapis.com%2Fcss%3Ffamily%3DSpace%2BMono;" parent="d_pu53hUmGRTe69JMyzy-145" vertex="1">
          <mxGeometry x="30" width="180" height="30" as="geometry">
            <mxRectangle width="180" height="30" as="alternateBounds" />
          </mxGeometry>
        </mxCell>
        <mxCell id="d_pu53hUmGRTe69JMyzy-148" value="TEXT" style="shape=partialRectangle;connectable=0;fillColor=none;top=0;left=0;bottom=0;right=0;align=left;spacingLeft=6;overflow=hidden;sketch=1;fontSize=18;fontFamily=Space Mono;fontSource=https%3A%2F%2Ffonts.googleapis.com%2Fcss%3Ffamily%3DSpace%2BMono;" parent="d_pu53hUmGRTe69JMyzy-145" vertex="1">
          <mxGeometry x="210" width="120" height="30" as="geometry">
            <mxRectangle width="120" height="30" as="alternateBounds" />
          </mxGeometry>
        </mxCell>
        <mxCell id="d_pu53hUmGRTe69JMyzy-149" value="NOT NULL" style="shape=partialRectangle;connectable=0;fillColor=none;top=0;left=0;bottom=0;right=0;align=left;spacingLeft=6;overflow=hidden;sketch=1;fontSize=18;fontFamily=Space Mono;fontSource=https%3A%2F%2Ffonts.googleapis.com%2Fcss%3Ffamily%3DSpace%2BMono;" parent="d_pu53hUmGRTe69JMyzy-145" vertex="1">
          <mxGeometry x="330" width="110" height="30" as="geometry">
            <mxRectangle width="110" height="30" as="alternateBounds" />
          </mxGeometry>
        </mxCell>
        <mxCell id="d_pu53hUmGRTe69JMyzy-239" style="shape=partialRectangle;connectable=0;fillColor=none;top=0;left=0;bottom=0;right=0;align=left;spacingLeft=6;overflow=hidden;sketch=1;fontSize=18;fontFamily=Space Mono;fontSource=https%3A%2F%2Ffonts.googleapis.com%2Fcss%3Ffamily%3DSpace%2BMono;" parent="d_pu53hUmGRTe69JMyzy-145" vertex="1">
          <mxGeometry x="440" width="90" height="30" as="geometry">
            <mxRectangle width="90" height="30" as="alternateBounds" />
          </mxGeometry>
        </mxCell>
        <mxCell id="d_pu53hUmGRTe69JMyzy-151" style="shape=tableRow;horizontal=0;startSize=0;swimlaneHead=0;swimlaneBody=0;fillColor=none;collapsible=0;dropTarget=0;points=[[0,0.5],[1,0.5]];portConstraint=eastwest;top=0;left=0;right=0;bottom=0;sketch=1;fontSize=18;fontFamily=Space Mono;fontSource=https%3A%2F%2Ffonts.googleapis.com%2Fcss%3Ffamily%3DSpace%2BMono;" parent="d_pu53hUmGRTe69JMyzy-134" vertex="1">
          <mxGeometry y="120" width="530" height="30" as="geometry" />
        </mxCell>
        <mxCell id="d_pu53hUmGRTe69JMyzy-152" style="shape=partialRectangle;connectable=0;fillColor=none;top=0;left=0;bottom=0;right=0;editable=1;overflow=hidden;sketch=1;fontSize=18;fontFamily=Space Mono;fontSource=https%3A%2F%2Ffonts.googleapis.com%2Fcss%3Ffamily%3DSpace%2BMono;" parent="d_pu53hUmGRTe69JMyzy-151" vertex="1">
          <mxGeometry width="30" height="30" as="geometry">
            <mxRectangle width="30" height="30" as="alternateBounds" />
          </mxGeometry>
        </mxCell>
        <mxCell id="d_pu53hUmGRTe69JMyzy-153" value="premium_price" style="shape=partialRectangle;connectable=0;fillColor=none;top=0;left=0;bottom=0;right=0;align=left;spacingLeft=6;overflow=hidden;sketch=1;fontSize=18;fontFamily=Space Mono;fontSource=https%3A%2F%2Ffonts.googleapis.com%2Fcss%3Ffamily%3DSpace%2BMono;" parent="d_pu53hUmGRTe69JMyzy-151" vertex="1">
          <mxGeometry x="30" width="180" height="30" as="geometry">
            <mxRectangle width="180" height="30" as="alternateBounds" />
          </mxGeometry>
        </mxCell>
        <mxCell id="d_pu53hUmGRTe69JMyzy-154" value="TEXT" style="shape=partialRectangle;connectable=0;fillColor=none;top=0;left=0;bottom=0;right=0;align=left;spacingLeft=6;overflow=hidden;sketch=1;fontSize=18;fontFamily=Space Mono;fontSource=https%3A%2F%2Ffonts.googleapis.com%2Fcss%3Ffamily%3DSpace%2BMono;" parent="d_pu53hUmGRTe69JMyzy-151" vertex="1">
          <mxGeometry x="210" width="120" height="30" as="geometry">
            <mxRectangle width="120" height="30" as="alternateBounds" />
          </mxGeometry>
        </mxCell>
        <mxCell id="d_pu53hUmGRTe69JMyzy-155" style="shape=partialRectangle;connectable=0;fillColor=none;top=0;left=0;bottom=0;right=0;align=left;spacingLeft=6;overflow=hidden;sketch=1;fontSize=18;fontFamily=Space Mono;fontSource=https%3A%2F%2Ffonts.googleapis.com%2Fcss%3Ffamily%3DSpace%2BMono;" parent="d_pu53hUmGRTe69JMyzy-151" vertex="1">
          <mxGeometry x="330" width="110" height="30" as="geometry">
            <mxRectangle width="110" height="30" as="alternateBounds" />
          </mxGeometry>
        </mxCell>
        <mxCell id="d_pu53hUmGRTe69JMyzy-240" style="shape=partialRectangle;connectable=0;fillColor=none;top=0;left=0;bottom=0;right=0;align=left;spacingLeft=6;overflow=hidden;sketch=1;fontSize=18;fontFamily=Space Mono;fontSource=https%3A%2F%2Ffonts.googleapis.com%2Fcss%3Ffamily%3DSpace%2BMono;" parent="d_pu53hUmGRTe69JMyzy-151" vertex="1">
          <mxGeometry x="440" width="90" height="30" as="geometry">
            <mxRectangle width="90" height="30" as="alternateBounds" />
          </mxGeometry>
        </mxCell>
        <mxCell id="d_pu53hUmGRTe69JMyzy-156" style="shape=tableRow;horizontal=0;startSize=0;swimlaneHead=0;swimlaneBody=0;fillColor=none;collapsible=0;dropTarget=0;points=[[0,0.5],[1,0.5]];portConstraint=eastwest;top=0;left=0;right=0;bottom=0;sketch=1;fontSize=18;fontFamily=Space Mono;fontSource=https%3A%2F%2Ffonts.googleapis.com%2Fcss%3Ffamily%3DSpace%2BMono;" parent="d_pu53hUmGRTe69JMyzy-134" vertex="1">
          <mxGeometry y="150" width="530" height="30" as="geometry" />
        </mxCell>
        <mxCell id="d_pu53hUmGRTe69JMyzy-157" style="shape=partialRectangle;connectable=0;fillColor=none;top=0;left=0;bottom=0;right=0;editable=1;overflow=hidden;sketch=1;fontSize=18;fontFamily=Space Mono;fontSource=https%3A%2F%2Ffonts.googleapis.com%2Fcss%3Ffamily%3DSpace%2BMono;" parent="d_pu53hUmGRTe69JMyzy-156" vertex="1">
          <mxGeometry width="30" height="30" as="geometry">
            <mxRectangle width="30" height="30" as="alternateBounds" />
          </mxGeometry>
        </mxCell>
        <mxCell id="d_pu53hUmGRTe69JMyzy-158" value="unlimited_price" style="shape=partialRectangle;connectable=0;fillColor=none;top=0;left=0;bottom=0;right=0;align=left;spacingLeft=6;overflow=hidden;sketch=1;fontSize=18;fontFamily=Space Mono;fontSource=https%3A%2F%2Ffonts.googleapis.com%2Fcss%3Ffamily%3DSpace%2BMono;" parent="d_pu53hUmGRTe69JMyzy-156" vertex="1">
          <mxGeometry x="30" width="180" height="30" as="geometry">
            <mxRectangle width="180" height="30" as="alternateBounds" />
          </mxGeometry>
        </mxCell>
        <mxCell id="d_pu53hUmGRTe69JMyzy-159" value="TEXT" style="shape=partialRectangle;connectable=0;fillColor=none;top=0;left=0;bottom=0;right=0;align=left;spacingLeft=6;overflow=hidden;sketch=1;fontSize=18;fontFamily=Space Mono;fontSource=https%3A%2F%2Ffonts.googleapis.com%2Fcss%3Ffamily%3DSpace%2BMono;" parent="d_pu53hUmGRTe69JMyzy-156" vertex="1">
          <mxGeometry x="210" width="120" height="30" as="geometry">
            <mxRectangle width="120" height="30" as="alternateBounds" />
          </mxGeometry>
        </mxCell>
        <mxCell id="d_pu53hUmGRTe69JMyzy-160" style="shape=partialRectangle;connectable=0;fillColor=none;top=0;left=0;bottom=0;right=0;align=left;spacingLeft=6;overflow=hidden;sketch=1;fontSize=18;fontFamily=Space Mono;fontSource=https%3A%2F%2Ffonts.googleapis.com%2Fcss%3Ffamily%3DSpace%2BMono;" parent="d_pu53hUmGRTe69JMyzy-156" vertex="1">
          <mxGeometry x="330" width="110" height="30" as="geometry">
            <mxRectangle width="110" height="30" as="alternateBounds" />
          </mxGeometry>
        </mxCell>
        <mxCell id="d_pu53hUmGRTe69JMyzy-241" style="shape=partialRectangle;connectable=0;fillColor=none;top=0;left=0;bottom=0;right=0;align=left;spacingLeft=6;overflow=hidden;sketch=1;fontSize=18;fontFamily=Space Mono;fontSource=https%3A%2F%2Ffonts.googleapis.com%2Fcss%3Ffamily%3DSpace%2BMono;" parent="d_pu53hUmGRTe69JMyzy-156" vertex="1">
          <mxGeometry x="440" width="90" height="30" as="geometry">
            <mxRectangle width="90" height="30" as="alternateBounds" />
          </mxGeometry>
        </mxCell>
        <mxCell id="d_pu53hUmGRTe69JMyzy-150" style="edgeStyle=orthogonalEdgeStyle;rounded=0;orthogonalLoop=1;jettySize=auto;html=1;fontSize=18;startArrow=ERmandOne;startFill=0;endArrow=ERmandOne;endFill=0;strokeWidth=3;fillColor=#e1d5e7;strokeColor=#9673a6;fontFamily=Space Mono;fontSource=https%3A%2F%2Ffonts.googleapis.com%2Fcss%3Ffamily%3DSpace%2BMono;exitX=0;exitY=0.5;exitDx=0;exitDy=0;entryX=1;entryY=0.5;entryDx=0;entryDy=0;" parent="1" source="d_pu53hUmGRTe69JMyzy-140" target="9T4gCMgOc6zHNCj7xmCQ-30" edge="1">
          <mxGeometry relative="1" as="geometry">
            <mxPoint x="1051" y="-530" as="targetPoint" />
            <Array as="points">
              <mxPoint x="1121" y="-203" />
              <mxPoint x="1121" y="-674" />
              <mxPoint x="1014" y="-674" />
            </Array>
          </mxGeometry>
        </mxCell>
        <mxCell id="d_pu53hUmGRTe69JMyzy-174" value="account" style="shape=table;startSize=30;container=1;collapsible=1;childLayout=tableLayout;fixedRows=1;rowLines=0;fontStyle=1;align=center;resizeLast=1;sketch=1;fontSize=18;fillColor=#dae8fc;strokeColor=#6c8ebf;fontFamily=Space Mono;fontSource=https%3A%2F%2Ffonts.googleapis.com%2Fcss%3Ffamily%3DSpace%2BMono;" parent="1" vertex="1">
          <mxGeometry x="1141" y="-1044" width="500" height="250" as="geometry" />
        </mxCell>
        <mxCell id="d_pu53hUmGRTe69JMyzy-175" value="" style="shape=tableRow;horizontal=0;startSize=0;swimlaneHead=0;swimlaneBody=0;fillColor=none;collapsible=0;dropTarget=0;points=[[0,0.5],[1,0.5]];portConstraint=eastwest;top=0;left=0;right=0;bottom=1;sketch=1;fontSize=18;fontFamily=Space Mono;fontSource=https%3A%2F%2Ffonts.googleapis.com%2Fcss%3Ffamily%3DSpace%2BMono;" parent="d_pu53hUmGRTe69JMyzy-174" vertex="1">
          <mxGeometry y="30" width="500" height="30" as="geometry" />
        </mxCell>
        <mxCell id="d_pu53hUmGRTe69JMyzy-176" value="PK" style="shape=partialRectangle;connectable=0;fillColor=none;top=0;left=0;bottom=0;right=0;fontStyle=1;overflow=hidden;sketch=1;fontSize=18;fontFamily=Space Mono;fontSource=https%3A%2F%2Ffonts.googleapis.com%2Fcss%3Ffamily%3DSpace%2BMono;" parent="d_pu53hUmGRTe69JMyzy-175" vertex="1">
          <mxGeometry width="30" height="30" as="geometry">
            <mxRectangle width="30" height="30" as="alternateBounds" />
          </mxGeometry>
        </mxCell>
        <mxCell id="d_pu53hUmGRTe69JMyzy-177" value="id" style="shape=partialRectangle;connectable=0;fillColor=none;top=0;left=0;bottom=0;right=0;align=left;spacingLeft=6;fontStyle=1;overflow=hidden;sketch=1;fontSize=18;fontFamily=Space Mono;fontSource=https%3A%2F%2Ffonts.googleapis.com%2Fcss%3Ffamily%3DSpace%2BMono;" parent="d_pu53hUmGRTe69JMyzy-175" vertex="1">
          <mxGeometry x="30" width="160" height="30" as="geometry">
            <mxRectangle width="160" height="30" as="alternateBounds" />
          </mxGeometry>
        </mxCell>
        <mxCell id="d_pu53hUmGRTe69JMyzy-178" value="BIGSERIAL" style="shape=partialRectangle;connectable=0;fillColor=none;top=0;left=0;bottom=0;right=0;align=left;spacingLeft=6;fontStyle=1;overflow=hidden;sketch=1;fontSize=18;fontFamily=Space Mono;fontSource=https%3A%2F%2Ffonts.googleapis.com%2Fcss%3Ffamily%3DSpace%2BMono;" parent="d_pu53hUmGRTe69JMyzy-175" vertex="1">
          <mxGeometry x="190" width="120" height="30" as="geometry">
            <mxRectangle width="120" height="30" as="alternateBounds" />
          </mxGeometry>
        </mxCell>
        <mxCell id="d_pu53hUmGRTe69JMyzy-225" style="shape=partialRectangle;connectable=0;fillColor=none;top=0;left=0;bottom=0;right=0;align=left;spacingLeft=6;fontStyle=1;overflow=hidden;sketch=1;fontSize=18;fontFamily=Space Mono;fontSource=https%3A%2F%2Ffonts.googleapis.com%2Fcss%3Ffamily%3DSpace%2BMono;" parent="d_pu53hUmGRTe69JMyzy-175" vertex="1">
          <mxGeometry x="310" width="80" height="30" as="geometry">
            <mxRectangle width="80" height="30" as="alternateBounds" />
          </mxGeometry>
        </mxCell>
        <mxCell id="d_pu53hUmGRTe69JMyzy-179" style="shape=partialRectangle;connectable=0;fillColor=none;top=0;left=0;bottom=0;right=0;align=left;spacingLeft=6;fontStyle=1;overflow=hidden;sketch=1;fontSize=18;fontFamily=Space Mono;fontSource=https%3A%2F%2Ffonts.googleapis.com%2Fcss%3Ffamily%3DSpace%2BMono;" parent="d_pu53hUmGRTe69JMyzy-175" vertex="1">
          <mxGeometry x="390" width="110" height="30" as="geometry">
            <mxRectangle width="110" height="30" as="alternateBounds" />
          </mxGeometry>
        </mxCell>
        <mxCell id="d_pu53hUmGRTe69JMyzy-180" style="shape=tableRow;horizontal=0;startSize=0;swimlaneHead=0;swimlaneBody=0;fillColor=none;collapsible=0;dropTarget=0;points=[[0,0.5],[1,0.5]];portConstraint=eastwest;top=0;left=0;right=0;bottom=0;sketch=1;fontSize=18;fontFamily=Space Mono;fontSource=https%3A%2F%2Ffonts.googleapis.com%2Fcss%3Ffamily%3DSpace%2BMono;" parent="d_pu53hUmGRTe69JMyzy-174" vertex="1">
          <mxGeometry y="60" width="500" height="30" as="geometry" />
        </mxCell>
        <mxCell id="d_pu53hUmGRTe69JMyzy-181" style="shape=partialRectangle;connectable=0;fillColor=none;top=0;left=0;bottom=0;right=0;editable=1;overflow=hidden;sketch=1;fontSize=18;fontFamily=Space Mono;fontSource=https%3A%2F%2Ffonts.googleapis.com%2Fcss%3Ffamily%3DSpace%2BMono;" parent="d_pu53hUmGRTe69JMyzy-180" vertex="1">
          <mxGeometry width="30" height="30" as="geometry">
            <mxRectangle width="30" height="30" as="alternateBounds" />
          </mxGeometry>
        </mxCell>
        <mxCell id="d_pu53hUmGRTe69JMyzy-182" value="name" style="shape=partialRectangle;connectable=0;fillColor=none;top=0;left=0;bottom=0;right=0;align=left;spacingLeft=6;overflow=hidden;sketch=1;fontSize=18;fontFamily=Space Mono;fontSource=https%3A%2F%2Ffonts.googleapis.com%2Fcss%3Ffamily%3DSpace%2BMono;" parent="d_pu53hUmGRTe69JMyzy-180" vertex="1">
          <mxGeometry x="30" width="160" height="30" as="geometry">
            <mxRectangle width="160" height="30" as="alternateBounds" />
          </mxGeometry>
        </mxCell>
        <mxCell id="d_pu53hUmGRTe69JMyzy-183" value="TEXT" style="shape=partialRectangle;connectable=0;fillColor=none;top=0;left=0;bottom=0;right=0;align=left;spacingLeft=6;overflow=hidden;sketch=1;fontSize=18;fontFamily=Space Mono;fontSource=https%3A%2F%2Ffonts.googleapis.com%2Fcss%3Ffamily%3DSpace%2BMono;" parent="d_pu53hUmGRTe69JMyzy-180" vertex="1">
          <mxGeometry x="190" width="120" height="30" as="geometry">
            <mxRectangle width="120" height="30" as="alternateBounds" />
          </mxGeometry>
        </mxCell>
        <mxCell id="d_pu53hUmGRTe69JMyzy-226" style="shape=partialRectangle;connectable=0;fillColor=none;top=0;left=0;bottom=0;right=0;align=left;spacingLeft=6;overflow=hidden;sketch=1;fontSize=18;fontFamily=Space Mono;fontSource=https%3A%2F%2Ffonts.googleapis.com%2Fcss%3Ffamily%3DSpace%2BMono;" parent="d_pu53hUmGRTe69JMyzy-180" vertex="1">
          <mxGeometry x="310" width="80" height="30" as="geometry">
            <mxRectangle width="80" height="30" as="alternateBounds" />
          </mxGeometry>
        </mxCell>
        <mxCell id="d_pu53hUmGRTe69JMyzy-184" value="" style="shape=partialRectangle;connectable=0;fillColor=none;top=0;left=0;bottom=0;right=0;align=left;spacingLeft=6;overflow=hidden;sketch=1;fontSize=18;fontFamily=Space Mono;fontSource=https%3A%2F%2Ffonts.googleapis.com%2Fcss%3Ffamily%3DSpace%2BMono;" parent="d_pu53hUmGRTe69JMyzy-180" vertex="1">
          <mxGeometry x="390" width="110" height="30" as="geometry">
            <mxRectangle width="110" height="30" as="alternateBounds" />
          </mxGeometry>
        </mxCell>
        <mxCell id="d_pu53hUmGRTe69JMyzy-185" value="" style="shape=tableRow;horizontal=0;startSize=0;swimlaneHead=0;swimlaneBody=0;fillColor=none;collapsible=0;dropTarget=0;points=[[0,0.5],[1,0.5]];portConstraint=eastwest;top=0;left=0;right=0;bottom=0;sketch=1;fontSize=18;fontFamily=Space Mono;fontSource=https%3A%2F%2Ffonts.googleapis.com%2Fcss%3Ffamily%3DSpace%2BMono;" parent="d_pu53hUmGRTe69JMyzy-174" vertex="1">
          <mxGeometry y="90" width="500" height="30" as="geometry" />
        </mxCell>
        <mxCell id="d_pu53hUmGRTe69JMyzy-186" value="" style="shape=partialRectangle;connectable=0;fillColor=none;top=0;left=0;bottom=0;right=0;editable=1;overflow=hidden;sketch=1;fontSize=18;fontFamily=Space Mono;fontSource=https%3A%2F%2Ffonts.googleapis.com%2Fcss%3Ffamily%3DSpace%2BMono;" parent="d_pu53hUmGRTe69JMyzy-185" vertex="1">
          <mxGeometry width="30" height="30" as="geometry">
            <mxRectangle width="30" height="30" as="alternateBounds" />
          </mxGeometry>
        </mxCell>
        <mxCell id="d_pu53hUmGRTe69JMyzy-187" value="username" style="shape=partialRectangle;connectable=0;fillColor=none;top=0;left=0;bottom=0;right=0;align=left;spacingLeft=6;overflow=hidden;sketch=1;fontSize=18;fontFamily=Space Mono;fontSource=https%3A%2F%2Ffonts.googleapis.com%2Fcss%3Ffamily%3DSpace%2BMono;" parent="d_pu53hUmGRTe69JMyzy-185" vertex="1">
          <mxGeometry x="30" width="160" height="30" as="geometry">
            <mxRectangle width="160" height="30" as="alternateBounds" />
          </mxGeometry>
        </mxCell>
        <mxCell id="d_pu53hUmGRTe69JMyzy-188" value="TEXT" style="shape=partialRectangle;connectable=0;fillColor=none;top=0;left=0;bottom=0;right=0;align=left;spacingLeft=6;overflow=hidden;sketch=1;fontSize=18;fontFamily=Space Mono;fontSource=https%3A%2F%2Ffonts.googleapis.com%2Fcss%3Ffamily%3DSpace%2BMono;" parent="d_pu53hUmGRTe69JMyzy-185" vertex="1">
          <mxGeometry x="190" width="120" height="30" as="geometry">
            <mxRectangle width="120" height="30" as="alternateBounds" />
          </mxGeometry>
        </mxCell>
        <mxCell id="d_pu53hUmGRTe69JMyzy-227" value="UNIQUE" style="shape=partialRectangle;connectable=0;fillColor=none;top=0;left=0;bottom=0;right=0;align=left;spacingLeft=6;overflow=hidden;sketch=1;fontSize=18;fontFamily=Space Mono;fontSource=https%3A%2F%2Ffonts.googleapis.com%2Fcss%3Ffamily%3DSpace%2BMono;" parent="d_pu53hUmGRTe69JMyzy-185" vertex="1">
          <mxGeometry x="310" width="80" height="30" as="geometry">
            <mxRectangle width="80" height="30" as="alternateBounds" />
          </mxGeometry>
        </mxCell>
        <mxCell id="d_pu53hUmGRTe69JMyzy-189" value="NOT NULL" style="shape=partialRectangle;connectable=0;fillColor=none;top=0;left=0;bottom=0;right=0;align=left;spacingLeft=6;overflow=hidden;sketch=1;fontSize=18;fontFamily=Space Mono;fontSource=https%3A%2F%2Ffonts.googleapis.com%2Fcss%3Ffamily%3DSpace%2BMono;" parent="d_pu53hUmGRTe69JMyzy-185" vertex="1">
          <mxGeometry x="390" width="110" height="30" as="geometry">
            <mxRectangle width="110" height="30" as="alternateBounds" />
          </mxGeometry>
        </mxCell>
        <mxCell id="d_pu53hUmGRTe69JMyzy-190" value="" style="shape=tableRow;horizontal=0;startSize=0;swimlaneHead=0;swimlaneBody=0;fillColor=none;collapsible=0;dropTarget=0;points=[[0,0.5],[1,0.5]];portConstraint=eastwest;top=0;left=0;right=0;bottom=0;sketch=1;fontSize=18;fontFamily=Space Mono;fontSource=https%3A%2F%2Ffonts.googleapis.com%2Fcss%3Ffamily%3DSpace%2BMono;" parent="d_pu53hUmGRTe69JMyzy-174" vertex="1">
          <mxGeometry y="120" width="500" height="30" as="geometry" />
        </mxCell>
        <mxCell id="d_pu53hUmGRTe69JMyzy-191" value="" style="shape=partialRectangle;connectable=0;fillColor=none;top=0;left=0;bottom=0;right=0;editable=1;overflow=hidden;sketch=1;fontSize=18;fontFamily=Space Mono;fontSource=https%3A%2F%2Ffonts.googleapis.com%2Fcss%3Ffamily%3DSpace%2BMono;" parent="d_pu53hUmGRTe69JMyzy-190" vertex="1">
          <mxGeometry width="30" height="30" as="geometry">
            <mxRectangle width="30" height="30" as="alternateBounds" />
          </mxGeometry>
        </mxCell>
        <mxCell id="d_pu53hUmGRTe69JMyzy-192" value="email" style="shape=partialRectangle;connectable=0;fillColor=none;top=0;left=0;bottom=0;right=0;align=left;spacingLeft=6;overflow=hidden;sketch=1;fontSize=18;fontFamily=Space Mono;fontSource=https%3A%2F%2Ffonts.googleapis.com%2Fcss%3Ffamily%3DSpace%2BMono;" parent="d_pu53hUmGRTe69JMyzy-190" vertex="1">
          <mxGeometry x="30" width="160" height="30" as="geometry">
            <mxRectangle width="160" height="30" as="alternateBounds" />
          </mxGeometry>
        </mxCell>
        <mxCell id="d_pu53hUmGRTe69JMyzy-193" value="TEXT" style="shape=partialRectangle;connectable=0;fillColor=none;top=0;left=0;bottom=0;right=0;align=left;spacingLeft=6;overflow=hidden;sketch=1;fontSize=18;fontFamily=Space Mono;fontSource=https%3A%2F%2Ffonts.googleapis.com%2Fcss%3Ffamily%3DSpace%2BMono;" parent="d_pu53hUmGRTe69JMyzy-190" vertex="1">
          <mxGeometry x="190" width="120" height="30" as="geometry">
            <mxRectangle width="120" height="30" as="alternateBounds" />
          </mxGeometry>
        </mxCell>
        <mxCell id="d_pu53hUmGRTe69JMyzy-228" value="UNIQUE" style="shape=partialRectangle;connectable=0;fillColor=none;top=0;left=0;bottom=0;right=0;align=left;spacingLeft=6;overflow=hidden;sketch=1;fontSize=18;fontFamily=Space Mono;fontSource=https%3A%2F%2Ffonts.googleapis.com%2Fcss%3Ffamily%3DSpace%2BMono;" parent="d_pu53hUmGRTe69JMyzy-190" vertex="1">
          <mxGeometry x="310" width="80" height="30" as="geometry">
            <mxRectangle width="80" height="30" as="alternateBounds" />
          </mxGeometry>
        </mxCell>
        <mxCell id="d_pu53hUmGRTe69JMyzy-194" value="NOT NULL" style="shape=partialRectangle;connectable=0;fillColor=none;top=0;left=0;bottom=0;right=0;align=left;spacingLeft=6;overflow=hidden;sketch=1;fontSize=18;fontFamily=Space Mono;fontSource=https%3A%2F%2Ffonts.googleapis.com%2Fcss%3Ffamily%3DSpace%2BMono;" parent="d_pu53hUmGRTe69JMyzy-190" vertex="1">
          <mxGeometry x="390" width="110" height="30" as="geometry">
            <mxRectangle width="110" height="30" as="alternateBounds" />
          </mxGeometry>
        </mxCell>
        <mxCell id="d_pu53hUmGRTe69JMyzy-195" style="shape=tableRow;horizontal=0;startSize=0;swimlaneHead=0;swimlaneBody=0;fillColor=none;collapsible=0;dropTarget=0;points=[[0,0.5],[1,0.5]];portConstraint=eastwest;top=0;left=0;right=0;bottom=0;sketch=1;fontSize=18;fontFamily=Space Mono;fontSource=https%3A%2F%2Ffonts.googleapis.com%2Fcss%3Ffamily%3DSpace%2BMono;" parent="d_pu53hUmGRTe69JMyzy-174" vertex="1">
          <mxGeometry y="150" width="500" height="30" as="geometry" />
        </mxCell>
        <mxCell id="d_pu53hUmGRTe69JMyzy-196" style="shape=partialRectangle;connectable=0;fillColor=none;top=0;left=0;bottom=0;right=0;editable=1;overflow=hidden;sketch=1;fontSize=18;fontFamily=Space Mono;fontSource=https%3A%2F%2Ffonts.googleapis.com%2Fcss%3Ffamily%3DSpace%2BMono;" parent="d_pu53hUmGRTe69JMyzy-195" vertex="1">
          <mxGeometry width="30" height="30" as="geometry">
            <mxRectangle width="30" height="30" as="alternateBounds" />
          </mxGeometry>
        </mxCell>
        <mxCell id="d_pu53hUmGRTe69JMyzy-197" value="photo_path" style="shape=partialRectangle;connectable=0;fillColor=none;top=0;left=0;bottom=0;right=0;align=left;spacingLeft=6;overflow=hidden;sketch=1;fontSize=18;fontFamily=Space Mono;fontSource=https%3A%2F%2Ffonts.googleapis.com%2Fcss%3Ffamily%3DSpace%2BMono;" parent="d_pu53hUmGRTe69JMyzy-195" vertex="1">
          <mxGeometry x="30" width="160" height="30" as="geometry">
            <mxRectangle width="160" height="30" as="alternateBounds" />
          </mxGeometry>
        </mxCell>
        <mxCell id="d_pu53hUmGRTe69JMyzy-198" value="TEXT" style="shape=partialRectangle;connectable=0;fillColor=none;top=0;left=0;bottom=0;right=0;align=left;spacingLeft=6;overflow=hidden;sketch=1;fontSize=18;fontFamily=Space Mono;fontSource=https%3A%2F%2Ffonts.googleapis.com%2Fcss%3Ffamily%3DSpace%2BMono;" parent="d_pu53hUmGRTe69JMyzy-195" vertex="1">
          <mxGeometry x="190" width="120" height="30" as="geometry">
            <mxRectangle width="120" height="30" as="alternateBounds" />
          </mxGeometry>
        </mxCell>
        <mxCell id="d_pu53hUmGRTe69JMyzy-229" style="shape=partialRectangle;connectable=0;fillColor=none;top=0;left=0;bottom=0;right=0;align=left;spacingLeft=6;overflow=hidden;sketch=1;fontSize=18;fontFamily=Space Mono;fontSource=https%3A%2F%2Ffonts.googleapis.com%2Fcss%3Ffamily%3DSpace%2BMono;" parent="d_pu53hUmGRTe69JMyzy-195" vertex="1">
          <mxGeometry x="310" width="80" height="30" as="geometry">
            <mxRectangle width="80" height="30" as="alternateBounds" />
          </mxGeometry>
        </mxCell>
        <mxCell id="d_pu53hUmGRTe69JMyzy-199" value="" style="shape=partialRectangle;connectable=0;fillColor=none;top=0;left=0;bottom=0;right=0;align=left;spacingLeft=6;overflow=hidden;sketch=1;fontSize=18;fontFamily=Space Mono;fontSource=https%3A%2F%2Ffonts.googleapis.com%2Fcss%3Ffamily%3DSpace%2BMono;" parent="d_pu53hUmGRTe69JMyzy-195" vertex="1">
          <mxGeometry x="390" width="110" height="30" as="geometry">
            <mxRectangle width="110" height="30" as="alternateBounds" />
          </mxGeometry>
        </mxCell>
        <mxCell id="d_pu53hUmGRTe69JMyzy-205" style="shape=tableRow;horizontal=0;startSize=0;swimlaneHead=0;swimlaneBody=0;fillColor=none;collapsible=0;dropTarget=0;points=[[0,0.5],[1,0.5]];portConstraint=eastwest;top=0;left=0;right=0;bottom=0;sketch=1;fontSize=18;fontFamily=Space Mono;fontSource=https%3A%2F%2Ffonts.googleapis.com%2Fcss%3Ffamily%3DSpace%2BMono;" parent="d_pu53hUmGRTe69JMyzy-174" vertex="1">
          <mxGeometry y="180" width="500" height="30" as="geometry" />
        </mxCell>
        <mxCell id="d_pu53hUmGRTe69JMyzy-206" style="shape=partialRectangle;connectable=0;fillColor=none;top=0;left=0;bottom=0;right=0;editable=1;overflow=hidden;sketch=1;fontSize=18;fontFamily=Space Mono;fontSource=https%3A%2F%2Ffonts.googleapis.com%2Fcss%3Ffamily%3DSpace%2BMono;" parent="d_pu53hUmGRTe69JMyzy-205" vertex="1">
          <mxGeometry width="30" height="30" as="geometry">
            <mxRectangle width="30" height="30" as="alternateBounds" />
          </mxGeometry>
        </mxCell>
        <mxCell id="d_pu53hUmGRTe69JMyzy-207" value="password_hash" style="shape=partialRectangle;connectable=0;fillColor=none;top=0;left=0;bottom=0;right=0;align=left;spacingLeft=6;overflow=hidden;sketch=1;fontSize=18;fontFamily=Space Mono;fontSource=https%3A%2F%2Ffonts.googleapis.com%2Fcss%3Ffamily%3DSpace%2BMono;" parent="d_pu53hUmGRTe69JMyzy-205" vertex="1">
          <mxGeometry x="30" width="160" height="30" as="geometry">
            <mxRectangle width="160" height="30" as="alternateBounds" />
          </mxGeometry>
        </mxCell>
        <mxCell id="d_pu53hUmGRTe69JMyzy-208" value="TEXT" style="shape=partialRectangle;connectable=0;fillColor=none;top=0;left=0;bottom=0;right=0;align=left;spacingLeft=6;overflow=hidden;sketch=1;fontSize=18;fontFamily=Space Mono;fontSource=https%3A%2F%2Ffonts.googleapis.com%2Fcss%3Ffamily%3DSpace%2BMono;" parent="d_pu53hUmGRTe69JMyzy-205" vertex="1">
          <mxGeometry x="190" width="120" height="30" as="geometry">
            <mxRectangle width="120" height="30" as="alternateBounds" />
          </mxGeometry>
        </mxCell>
        <mxCell id="d_pu53hUmGRTe69JMyzy-230" style="shape=partialRectangle;connectable=0;fillColor=none;top=0;left=0;bottom=0;right=0;align=left;spacingLeft=6;overflow=hidden;sketch=1;fontSize=18;fontFamily=Space Mono;fontSource=https%3A%2F%2Ffonts.googleapis.com%2Fcss%3Ffamily%3DSpace%2BMono;" parent="d_pu53hUmGRTe69JMyzy-205" vertex="1">
          <mxGeometry x="310" width="80" height="30" as="geometry">
            <mxRectangle width="80" height="30" as="alternateBounds" />
          </mxGeometry>
        </mxCell>
        <mxCell id="d_pu53hUmGRTe69JMyzy-209" value="NOT NULL" style="shape=partialRectangle;connectable=0;fillColor=none;top=0;left=0;bottom=0;right=0;align=left;spacingLeft=6;overflow=hidden;sketch=1;fontSize=18;fontFamily=Space Mono;fontSource=https%3A%2F%2Ffonts.googleapis.com%2Fcss%3Ffamily%3DSpace%2BMono;" parent="d_pu53hUmGRTe69JMyzy-205" vertex="1">
          <mxGeometry x="390" width="110" height="30" as="geometry">
            <mxRectangle width="110" height="30" as="alternateBounds" />
          </mxGeometry>
        </mxCell>
        <mxCell id="d_pu53hUmGRTe69JMyzy-220" style="shape=tableRow;horizontal=0;startSize=0;swimlaneHead=0;swimlaneBody=0;fillColor=none;collapsible=0;dropTarget=0;points=[[0,0.5],[1,0.5]];portConstraint=eastwest;top=0;left=0;right=0;bottom=0;sketch=1;fontSize=18;fontFamily=Space Mono;fontSource=https%3A%2F%2Ffonts.googleapis.com%2Fcss%3Ffamily%3DSpace%2BMono;" parent="d_pu53hUmGRTe69JMyzy-174" vertex="1">
          <mxGeometry y="210" width="500" height="30" as="geometry" />
        </mxCell>
        <mxCell id="d_pu53hUmGRTe69JMyzy-221" style="shape=partialRectangle;connectable=0;fillColor=none;top=0;left=0;bottom=0;right=0;editable=1;overflow=hidden;sketch=1;fontSize=18;fontFamily=Space Mono;fontSource=https%3A%2F%2Ffonts.googleapis.com%2Fcss%3Ffamily%3DSpace%2BMono;" parent="d_pu53hUmGRTe69JMyzy-220" vertex="1">
          <mxGeometry width="30" height="30" as="geometry">
            <mxRectangle width="30" height="30" as="alternateBounds" />
          </mxGeometry>
        </mxCell>
        <mxCell id="d_pu53hUmGRTe69JMyzy-222" value="created_at" style="shape=partialRectangle;connectable=0;fillColor=none;top=0;left=0;bottom=0;right=0;align=left;spacingLeft=6;overflow=hidden;sketch=1;fontSize=18;fontFamily=Space Mono;fontSource=https%3A%2F%2Ffonts.googleapis.com%2Fcss%3Ffamily%3DSpace%2BMono;" parent="d_pu53hUmGRTe69JMyzy-220" vertex="1">
          <mxGeometry x="30" width="160" height="30" as="geometry">
            <mxRectangle width="160" height="30" as="alternateBounds" />
          </mxGeometry>
        </mxCell>
        <mxCell id="d_pu53hUmGRTe69JMyzy-223" value="TIMESTAMP" style="shape=partialRectangle;connectable=0;fillColor=none;top=0;left=0;bottom=0;right=0;align=left;spacingLeft=6;overflow=hidden;sketch=1;fontSize=18;fontFamily=Space Mono;fontSource=https%3A%2F%2Ffonts.googleapis.com%2Fcss%3Ffamily%3DSpace%2BMono;" parent="d_pu53hUmGRTe69JMyzy-220" vertex="1">
          <mxGeometry x="190" width="120" height="30" as="geometry">
            <mxRectangle width="120" height="30" as="alternateBounds" />
          </mxGeometry>
        </mxCell>
        <mxCell id="d_pu53hUmGRTe69JMyzy-231" style="shape=partialRectangle;connectable=0;fillColor=none;top=0;left=0;bottom=0;right=0;align=left;spacingLeft=6;overflow=hidden;sketch=1;fontSize=18;fontFamily=Space Mono;fontSource=https%3A%2F%2Ffonts.googleapis.com%2Fcss%3Ffamily%3DSpace%2BMono;" parent="d_pu53hUmGRTe69JMyzy-220" vertex="1">
          <mxGeometry x="310" width="80" height="30" as="geometry">
            <mxRectangle width="80" height="30" as="alternateBounds" />
          </mxGeometry>
        </mxCell>
        <mxCell id="d_pu53hUmGRTe69JMyzy-224" value="NOT NULL" style="shape=partialRectangle;connectable=0;fillColor=none;top=0;left=0;bottom=0;right=0;align=left;spacingLeft=6;overflow=hidden;sketch=1;fontSize=18;fontFamily=Space Mono;fontSource=https%3A%2F%2Ffonts.googleapis.com%2Fcss%3Ffamily%3DSpace%2BMono;" parent="d_pu53hUmGRTe69JMyzy-220" vertex="1">
          <mxGeometry x="390" width="110" height="30" as="geometry">
            <mxRectangle width="110" height="30" as="alternateBounds" />
          </mxGeometry>
        </mxCell>
        <mxCell id="d_pu53hUmGRTe69JMyzy-243" value="account_playlist" style="shape=table;startSize=30;container=1;collapsible=1;childLayout=tableLayout;fixedRows=1;rowLines=0;fontStyle=1;align=center;resizeLast=1;sketch=1;fontSize=18;fillColor=#fff2cc;strokeColor=#d6b656;fontFamily=Space Mono;fontSource=https%3A%2F%2Ffonts.googleapis.com%2Fcss%3Ffamily%3DSpace%2BMono;" parent="1" vertex="1">
          <mxGeometry x="1200.03" y="-730" width="381.9375" height="99.9375" as="geometry" />
        </mxCell>
        <mxCell id="d_pu53hUmGRTe69JMyzy-249" style="shape=tableRow;horizontal=0;startSize=0;swimlaneHead=0;swimlaneBody=0;fillColor=none;collapsible=0;dropTarget=0;points=[[0,0.5],[1,0.5]];portConstraint=eastwest;top=0;left=0;right=0;bottom=0;sketch=1;fontSize=18;fontFamily=Space Mono;fontSource=https%3A%2F%2Ffonts.googleapis.com%2Fcss%3Ffamily%3DSpace%2BMono;" parent="d_pu53hUmGRTe69JMyzy-243" vertex="1">
          <mxGeometry y="30" width="381.9375" height="30" as="geometry" />
        </mxCell>
        <mxCell id="d_pu53hUmGRTe69JMyzy-250" value="PK,FG" style="shape=partialRectangle;connectable=0;fillColor=none;top=0;left=0;bottom=0;right=0;editable=1;overflow=hidden;sketch=1;fontSize=18;fontFamily=Space Mono;fontSource=https%3A%2F%2Ffonts.googleapis.com%2Fcss%3Ffamily%3DSpace%2BMono;" parent="d_pu53hUmGRTe69JMyzy-249" vertex="1">
          <mxGeometry width="63.1875" height="30" as="geometry">
            <mxRectangle width="63.1875" height="30" as="alternateBounds" />
          </mxGeometry>
        </mxCell>
        <mxCell id="d_pu53hUmGRTe69JMyzy-251" value="account_id" style="shape=partialRectangle;connectable=0;fillColor=none;top=0;left=0;bottom=0;right=0;align=left;spacingLeft=6;overflow=hidden;sketch=1;fontSize=18;fontFamily=Space Mono;fontSource=https%3A%2F%2Ffonts.googleapis.com%2Fcss%3Ffamily%3DSpace%2BMono;" parent="d_pu53hUmGRTe69JMyzy-249" vertex="1">
          <mxGeometry x="63.1875" width="133.75" height="30" as="geometry">
            <mxRectangle width="133.75" height="30" as="alternateBounds" />
          </mxGeometry>
        </mxCell>
        <mxCell id="d_pu53hUmGRTe69JMyzy-252" value="BIGINT" style="shape=partialRectangle;connectable=0;fillColor=none;top=0;left=0;bottom=0;right=0;align=left;spacingLeft=6;overflow=hidden;sketch=1;fontSize=18;fontFamily=Space Mono;fontSource=https%3A%2F%2Ffonts.googleapis.com%2Fcss%3Ffamily%3DSpace%2BMono;" parent="d_pu53hUmGRTe69JMyzy-249" vertex="1">
          <mxGeometry x="196.9375" width="82.5" height="30" as="geometry">
            <mxRectangle width="82.5" height="30" as="alternateBounds" />
          </mxGeometry>
        </mxCell>
        <mxCell id="d_pu53hUmGRTe69JMyzy-253" value="NOT NULL" style="shape=partialRectangle;connectable=0;fillColor=none;top=0;left=0;bottom=0;right=0;align=left;spacingLeft=6;overflow=hidden;sketch=1;fontSize=18;fontFamily=Space Mono;fontSource=https%3A%2F%2Ffonts.googleapis.com%2Fcss%3Ffamily%3DSpace%2BMono;" parent="d_pu53hUmGRTe69JMyzy-249" vertex="1">
          <mxGeometry x="279.4375" width="102.5" height="30" as="geometry">
            <mxRectangle width="102.5" height="30" as="alternateBounds" />
          </mxGeometry>
        </mxCell>
        <mxCell id="d_pu53hUmGRTe69JMyzy-254" value="" style="shape=tableRow;horizontal=0;startSize=0;swimlaneHead=0;swimlaneBody=0;fillColor=none;collapsible=0;dropTarget=0;points=[[0,0.5],[1,0.5]];portConstraint=eastwest;top=0;left=0;right=0;bottom=0;sketch=1;fontSize=18;fontFamily=Space Mono;fontSource=https%3A%2F%2Ffonts.googleapis.com%2Fcss%3Ffamily%3DSpace%2BMono;" parent="d_pu53hUmGRTe69JMyzy-243" vertex="1">
          <mxGeometry y="60" width="381.9375" height="30" as="geometry" />
        </mxCell>
        <mxCell id="d_pu53hUmGRTe69JMyzy-255" value="PK,FG" style="shape=partialRectangle;connectable=0;fillColor=none;top=0;left=0;bottom=0;right=0;editable=1;overflow=hidden;sketch=1;fontSize=18;fontFamily=Space Mono;fontSource=https%3A%2F%2Ffonts.googleapis.com%2Fcss%3Ffamily%3DSpace%2BMono;" parent="d_pu53hUmGRTe69JMyzy-254" vertex="1">
          <mxGeometry width="63.1875" height="30" as="geometry">
            <mxRectangle width="63.1875" height="30" as="alternateBounds" />
          </mxGeometry>
        </mxCell>
        <mxCell id="d_pu53hUmGRTe69JMyzy-256" value="playlist_id" style="shape=partialRectangle;connectable=0;fillColor=none;top=0;left=0;bottom=0;right=0;align=left;spacingLeft=6;overflow=hidden;sketch=1;fontSize=18;fontFamily=Space Mono;fontSource=https%3A%2F%2Ffonts.googleapis.com%2Fcss%3Ffamily%3DSpace%2BMono;" parent="d_pu53hUmGRTe69JMyzy-254" vertex="1">
          <mxGeometry x="63.1875" width="133.75" height="30" as="geometry">
            <mxRectangle width="133.75" height="30" as="alternateBounds" />
          </mxGeometry>
        </mxCell>
        <mxCell id="d_pu53hUmGRTe69JMyzy-257" value="BIGINT" style="shape=partialRectangle;connectable=0;fillColor=none;top=0;left=0;bottom=0;right=0;align=left;spacingLeft=6;overflow=hidden;sketch=1;fontSize=18;fontFamily=Space Mono;fontSource=https%3A%2F%2Ffonts.googleapis.com%2Fcss%3Ffamily%3DSpace%2BMono;" parent="d_pu53hUmGRTe69JMyzy-254" vertex="1">
          <mxGeometry x="196.9375" width="82.5" height="30" as="geometry">
            <mxRectangle width="82.5" height="30" as="alternateBounds" />
          </mxGeometry>
        </mxCell>
        <mxCell id="d_pu53hUmGRTe69JMyzy-258" value="NOT NULL" style="shape=partialRectangle;connectable=0;fillColor=none;top=0;left=0;bottom=0;right=0;align=left;spacingLeft=6;overflow=hidden;sketch=1;fontSize=18;fontFamily=Space Mono;fontSource=https%3A%2F%2Ffonts.googleapis.com%2Fcss%3Ffamily%3DSpace%2BMono;" parent="d_pu53hUmGRTe69JMyzy-254" vertex="1">
          <mxGeometry x="279.4375" width="102.5" height="30" as="geometry">
            <mxRectangle width="102.5" height="30" as="alternateBounds" />
          </mxGeometry>
        </mxCell>
        <mxCell id="d_pu53hUmGRTe69JMyzy-268" style="edgeStyle=orthogonalEdgeStyle;rounded=0;orthogonalLoop=1;jettySize=auto;html=1;entryX=0;entryY=0.5;entryDx=0;entryDy=0;fontFamily=Verdana;fontSize=18;startArrow=none;startFill=0;endArrow=none;endFill=0;strokeWidth=3;fillColor=#f8cecc;strokeColor=#b85450;" parent="1" source="d_pu53hUmGRTe69JMyzy-267" target="d_pu53hUmGRTe69JMyzy-232" edge="1">
          <mxGeometry relative="1" as="geometry">
            <Array as="points">
              <mxPoint x="577" y="-281" />
            </Array>
          </mxGeometry>
        </mxCell>
        <mxCell id="d_pu53hUmGRTe69JMyzy-267" value="default: 0" style="shape=note;size=20;whiteSpace=wrap;html=1;sketch=1;fontFamily=Verdana;fontSize=18;fillColor=#f8cecc;strokeColor=#b85450;" parent="1" vertex="1">
          <mxGeometry x="519" y="-403" width="100" height="100" as="geometry" />
        </mxCell>
        <mxCell id="d_pu53hUmGRTe69JMyzy-279" value="account" style="rounded=1;arcSize=10;whiteSpace=wrap;html=1;align=center;sketch=1;fillColor=#dae8fc;strokeColor=#6c8ebf;fontFamily=Space Mono;fontSource=https%3A%2F%2Ffonts.googleapis.com%2Fcss%3Ffamily%3DSpace%2BMono;fontSize=27;" parent="1" vertex="1">
          <mxGeometry x="85.75" y="-1004" width="121" height="40" as="geometry" />
        </mxCell>
        <mxCell id="d_pu53hUmGRTe69JMyzy-280" value="artist" style="shape=table;startSize=30;container=1;collapsible=1;childLayout=tableLayout;fixedRows=1;rowLines=0;fontStyle=1;align=center;resizeLast=1;sketch=1;fontSize=18;fillColor=#dae8fc;strokeColor=#6c8ebf;fontFamily=Space Mono;fontSource=https%3A%2F%2Ffonts.googleapis.com%2Fcss%3Ffamily%3DSpace%2BMono;" parent="1" vertex="1">
          <mxGeometry x="617" y="-1044" width="430" height="99.76103210449219" as="geometry" />
        </mxCell>
        <mxCell id="d_pu53hUmGRTe69JMyzy-281" value="" style="shape=tableRow;horizontal=0;startSize=0;swimlaneHead=0;swimlaneBody=0;fillColor=none;collapsible=0;dropTarget=0;points=[[0,0.5],[1,0.5]];portConstraint=eastwest;top=0;left=0;right=0;bottom=1;sketch=1;fontSize=18;fontFamily=Space Mono;fontSource=https%3A%2F%2Ffonts.googleapis.com%2Fcss%3Ffamily%3DSpace%2BMono;" parent="d_pu53hUmGRTe69JMyzy-280" vertex="1">
          <mxGeometry y="30" width="430" height="30" as="geometry" />
        </mxCell>
        <mxCell id="d_pu53hUmGRTe69JMyzy-282" value="PK,FG" style="shape=partialRectangle;connectable=0;fillColor=none;top=0;left=0;bottom=0;right=0;fontStyle=1;overflow=hidden;sketch=1;fontSize=18;fontFamily=Space Mono;fontSource=https%3A%2F%2Ffonts.googleapis.com%2Fcss%3Ffamily%3DSpace%2BMono;" parent="d_pu53hUmGRTe69JMyzy-281" vertex="1">
          <mxGeometry width="70" height="30" as="geometry">
            <mxRectangle width="70" height="30" as="alternateBounds" />
          </mxGeometry>
        </mxCell>
        <mxCell id="d_pu53hUmGRTe69JMyzy-283" value="id" style="shape=partialRectangle;connectable=0;fillColor=none;top=0;left=0;bottom=0;right=0;align=left;spacingLeft=6;fontStyle=1;overflow=hidden;sketch=1;fontSize=18;fontFamily=Space Mono;fontSource=https%3A%2F%2Ffonts.googleapis.com%2Fcss%3Ffamily%3DSpace%2BMono;" parent="d_pu53hUmGRTe69JMyzy-281" vertex="1">
          <mxGeometry x="70" width="130" height="30" as="geometry">
            <mxRectangle width="130" height="30" as="alternateBounds" />
          </mxGeometry>
        </mxCell>
        <mxCell id="d_pu53hUmGRTe69JMyzy-284" value="BIGINT" style="shape=partialRectangle;connectable=0;fillColor=none;top=0;left=0;bottom=0;right=0;align=left;spacingLeft=6;fontStyle=1;overflow=hidden;sketch=1;fontSize=18;fontFamily=Space Mono;fontSource=https%3A%2F%2Ffonts.googleapis.com%2Fcss%3Ffamily%3DSpace%2BMono;" parent="d_pu53hUmGRTe69JMyzy-281" vertex="1">
          <mxGeometry x="200" width="120" height="30" as="geometry">
            <mxRectangle width="120" height="30" as="alternateBounds" />
          </mxGeometry>
        </mxCell>
        <mxCell id="d_pu53hUmGRTe69JMyzy-286" value="NOT NULL" style="shape=partialRectangle;connectable=0;fillColor=none;top=0;left=0;bottom=0;right=0;align=left;spacingLeft=6;fontStyle=1;overflow=hidden;sketch=1;fontSize=18;fontFamily=Space Mono;fontSource=https%3A%2F%2Ffonts.googleapis.com%2Fcss%3Ffamily%3DSpace%2BMono;" parent="d_pu53hUmGRTe69JMyzy-281" vertex="1">
          <mxGeometry x="320" width="110" height="30" as="geometry">
            <mxRectangle width="110" height="30" as="alternateBounds" />
          </mxGeometry>
        </mxCell>
        <mxCell id="d_pu53hUmGRTe69JMyzy-317" style="shape=tableRow;horizontal=0;startSize=0;swimlaneHead=0;swimlaneBody=0;fillColor=none;collapsible=0;dropTarget=0;points=[[0,0.5],[1,0.5]];portConstraint=eastwest;top=0;left=0;right=0;bottom=0;sketch=1;fontSize=18;fontFamily=Space Mono;fontSource=https%3A%2F%2Ffonts.googleapis.com%2Fcss%3Ffamily%3DSpace%2BMono;" parent="d_pu53hUmGRTe69JMyzy-280" vertex="1">
          <mxGeometry y="60" width="430" height="30" as="geometry" />
        </mxCell>
        <mxCell id="d_pu53hUmGRTe69JMyzy-318" style="shape=partialRectangle;connectable=0;fillColor=none;top=0;left=0;bottom=0;right=0;editable=1;overflow=hidden;sketch=1;fontSize=18;fontFamily=Space Mono;fontSource=https%3A%2F%2Ffonts.googleapis.com%2Fcss%3Ffamily%3DSpace%2BMono;" parent="d_pu53hUmGRTe69JMyzy-317" vertex="1">
          <mxGeometry width="70" height="30" as="geometry">
            <mxRectangle width="70" height="30" as="alternateBounds" />
          </mxGeometry>
        </mxCell>
        <mxCell id="d_pu53hUmGRTe69JMyzy-319" value="created_at" style="shape=partialRectangle;connectable=0;fillColor=none;top=0;left=0;bottom=0;right=0;align=left;spacingLeft=6;overflow=hidden;sketch=1;fontSize=18;fontFamily=Space Mono;fontSource=https%3A%2F%2Ffonts.googleapis.com%2Fcss%3Ffamily%3DSpace%2BMono;" parent="d_pu53hUmGRTe69JMyzy-317" vertex="1">
          <mxGeometry x="70" width="130" height="30" as="geometry">
            <mxRectangle width="130" height="30" as="alternateBounds" />
          </mxGeometry>
        </mxCell>
        <mxCell id="d_pu53hUmGRTe69JMyzy-320" value="TIMESTAMP" style="shape=partialRectangle;connectable=0;fillColor=none;top=0;left=0;bottom=0;right=0;align=left;spacingLeft=6;overflow=hidden;sketch=1;fontSize=18;fontFamily=Space Mono;fontSource=https%3A%2F%2Ffonts.googleapis.com%2Fcss%3Ffamily%3DSpace%2BMono;" parent="d_pu53hUmGRTe69JMyzy-317" vertex="1">
          <mxGeometry x="200" width="120" height="30" as="geometry">
            <mxRectangle width="120" height="30" as="alternateBounds" />
          </mxGeometry>
        </mxCell>
        <mxCell id="d_pu53hUmGRTe69JMyzy-322" value="NOT NULL" style="shape=partialRectangle;connectable=0;fillColor=none;top=0;left=0;bottom=0;right=0;align=left;spacingLeft=6;overflow=hidden;sketch=1;fontSize=18;fontFamily=Space Mono;fontSource=https%3A%2F%2Ffonts.googleapis.com%2Fcss%3Ffamily%3DSpace%2BMono;" parent="d_pu53hUmGRTe69JMyzy-317" vertex="1">
          <mxGeometry x="320" width="110" height="30" as="geometry">
            <mxRectangle width="110" height="30" as="alternateBounds" />
          </mxGeometry>
        </mxCell>
        <mxCell id="d_pu53hUmGRTe69JMyzy-324" style="edgeStyle=orthogonalEdgeStyle;rounded=0;orthogonalLoop=1;jettySize=auto;html=1;exitX=1;exitY=0.5;exitDx=0;exitDy=0;entryX=1;entryY=0.5;entryDx=0;entryDy=0;fontFamily=Verdana;fontSize=18;startArrow=ERone;startFill=0;endArrow=ERzeroToMany;endFill=0;strokeWidth=3;fillColor=#fff2cc;strokeColor=#d6b656;" parent="1" source="d_pu53hUmGRTe69JMyzy-249" target="d_pu53hUmGRTe69JMyzy-175" edge="1">
          <mxGeometry relative="1" as="geometry">
            <Array as="points">
              <mxPoint x="1685" y="-685" />
              <mxPoint x="1685" y="-999" />
            </Array>
          </mxGeometry>
        </mxCell>
        <mxCell id="d_pu53hUmGRTe69JMyzy-325" style="edgeStyle=orthogonalEdgeStyle;rounded=0;orthogonalLoop=1;jettySize=auto;html=1;fontFamily=Verdana;fontSize=18;startArrow=ERmandOne;startFill=0;endArrow=ERmandOne;endFill=0;strokeWidth=3;fillColor=#dae8fc;strokeColor=#6c8ebf;entryX=1;entryY=0.5;entryDx=0;entryDy=0;" parent="1" target="d_pu53hUmGRTe69JMyzy-281" edge="1">
          <mxGeometry relative="1" as="geometry">
            <mxPoint x="1141" y="-1014" as="sourcePoint" />
            <mxPoint x="1074" y="-1016" as="targetPoint" />
            <Array as="points">
              <mxPoint x="1095" y="-1014" />
              <mxPoint x="1095" y="-999" />
            </Array>
          </mxGeometry>
        </mxCell>
        <mxCell id="d_pu53hUmGRTe69JMyzy-372" style="edgeStyle=orthogonalEdgeStyle;rounded=0;orthogonalLoop=1;jettySize=auto;html=1;exitX=0;exitY=0.5;exitDx=0;exitDy=0;entryX=0;entryY=0.5;entryDx=0;entryDy=0;fontFamily=Verdana;fontSize=18;startArrow=ERzeroToMany;startFill=0;endArrow=ERmandOne;endFill=0;strokeWidth=3;fillColor=#dae8fc;strokeColor=#6c8ebf;" parent="1" source="9T4gCMgOc6zHNCj7xmCQ-55" target="d_pu53hUmGRTe69JMyzy-281" edge="1">
          <mxGeometry relative="1" as="geometry">
            <Array as="points">
              <mxPoint x="576" y="-645" />
              <mxPoint x="576" y="-999" />
            </Array>
            <mxPoint x="633" y="-491.9999999999998" as="sourcePoint" />
          </mxGeometry>
        </mxCell>
        <mxCell id="d_pu53hUmGRTe69JMyzy-373" value="account_beat" style="shape=table;startSize=30;container=1;collapsible=1;childLayout=tableLayout;fixedRows=1;rowLines=0;fontStyle=1;align=center;resizeLast=1;sketch=1;fontSize=18;fillColor=#fff2cc;strokeColor=#d6b656;fontFamily=Space Mono;fontSource=https%3A%2F%2Ffonts.googleapis.com%2Fcss%3Ffamily%3DSpace%2BMono;" parent="1" vertex="1">
          <mxGeometry x="644" y="-912" width="380" height="160" as="geometry" />
        </mxCell>
        <mxCell id="d_pu53hUmGRTe69JMyzy-374" value="" style="shape=tableRow;horizontal=0;startSize=0;swimlaneHead=0;swimlaneBody=0;fillColor=none;collapsible=0;dropTarget=0;points=[[0,0.5],[1,0.5]];portConstraint=eastwest;top=0;left=0;right=0;bottom=1;sketch=1;fontSize=18;fontFamily=Space Mono;fontSource=https%3A%2F%2Ffonts.googleapis.com%2Fcss%3Ffamily%3DSpace%2BMono;" parent="d_pu53hUmGRTe69JMyzy-373" vertex="1">
          <mxGeometry y="30" width="380" height="30" as="geometry" />
        </mxCell>
        <mxCell id="d_pu53hUmGRTe69JMyzy-375" value="PK" style="shape=partialRectangle;connectable=0;fillColor=none;top=0;left=0;bottom=0;right=0;fontStyle=1;overflow=hidden;sketch=1;fontSize=18;fontFamily=Space Mono;fontSource=https%3A%2F%2Ffonts.googleapis.com%2Fcss%3Ffamily%3DSpace%2BMono;" parent="d_pu53hUmGRTe69JMyzy-374" vertex="1">
          <mxGeometry width="30" height="30" as="geometry">
            <mxRectangle width="30" height="30" as="alternateBounds" />
          </mxGeometry>
        </mxCell>
        <mxCell id="d_pu53hUmGRTe69JMyzy-376" value="id" style="shape=partialRectangle;connectable=0;fillColor=none;top=0;left=0;bottom=0;right=0;align=left;spacingLeft=6;fontStyle=1;overflow=hidden;sketch=1;fontSize=18;fontFamily=Space Mono;fontSource=https%3A%2F%2Ffonts.googleapis.com%2Fcss%3Ffamily%3DSpace%2BMono;" parent="d_pu53hUmGRTe69JMyzy-374" vertex="1">
          <mxGeometry x="30" width="120" height="30" as="geometry">
            <mxRectangle width="120" height="30" as="alternateBounds" />
          </mxGeometry>
        </mxCell>
        <mxCell id="d_pu53hUmGRTe69JMyzy-377" value="BIGSERIAL" style="shape=partialRectangle;connectable=0;fillColor=none;top=0;left=0;bottom=0;right=0;align=left;spacingLeft=6;fontStyle=1;overflow=hidden;sketch=1;fontSize=18;fontFamily=Space Mono;fontSource=https%3A%2F%2Ffonts.googleapis.com%2Fcss%3Ffamily%3DSpace%2BMono;" parent="d_pu53hUmGRTe69JMyzy-374" vertex="1">
          <mxGeometry x="150" width="120" height="30" as="geometry">
            <mxRectangle width="120" height="30" as="alternateBounds" />
          </mxGeometry>
        </mxCell>
        <mxCell id="d_pu53hUmGRTe69JMyzy-378" style="shape=partialRectangle;connectable=0;fillColor=none;top=0;left=0;bottom=0;right=0;align=left;spacingLeft=6;fontStyle=1;overflow=hidden;sketch=1;fontSize=18;fontFamily=Space Mono;fontSource=https%3A%2F%2Ffonts.googleapis.com%2Fcss%3Ffamily%3DSpace%2BMono;" parent="d_pu53hUmGRTe69JMyzy-374" vertex="1">
          <mxGeometry x="270" width="110" height="30" as="geometry">
            <mxRectangle width="110" height="30" as="alternateBounds" />
          </mxGeometry>
        </mxCell>
        <mxCell id="d_pu53hUmGRTe69JMyzy-379" style="shape=tableRow;horizontal=0;startSize=0;swimlaneHead=0;swimlaneBody=0;fillColor=none;collapsible=0;dropTarget=0;points=[[0,0.5],[1,0.5]];portConstraint=eastwest;top=0;left=0;right=0;bottom=0;sketch=1;fontSize=18;fontFamily=Space Mono;fontSource=https%3A%2F%2Ffonts.googleapis.com%2Fcss%3Ffamily%3DSpace%2BMono;" parent="d_pu53hUmGRTe69JMyzy-373" vertex="1">
          <mxGeometry y="60" width="380" height="30" as="geometry" />
        </mxCell>
        <mxCell id="d_pu53hUmGRTe69JMyzy-380" value="FG" style="shape=partialRectangle;connectable=0;fillColor=none;top=0;left=0;bottom=0;right=0;editable=1;overflow=hidden;sketch=1;fontSize=18;fontFamily=Space Mono;fontSource=https%3A%2F%2Ffonts.googleapis.com%2Fcss%3Ffamily%3DSpace%2BMono;" parent="d_pu53hUmGRTe69JMyzy-379" vertex="1">
          <mxGeometry width="30" height="30" as="geometry">
            <mxRectangle width="30" height="30" as="alternateBounds" />
          </mxGeometry>
        </mxCell>
        <mxCell id="d_pu53hUmGRTe69JMyzy-381" value="account_id" style="shape=partialRectangle;connectable=0;fillColor=none;top=0;left=0;bottom=0;right=0;align=left;spacingLeft=6;overflow=hidden;sketch=1;fontSize=18;fontFamily=Space Mono;fontSource=https%3A%2F%2Ffonts.googleapis.com%2Fcss%3Ffamily%3DSpace%2BMono;" parent="d_pu53hUmGRTe69JMyzy-379" vertex="1">
          <mxGeometry x="30" width="120" height="30" as="geometry">
            <mxRectangle width="120" height="30" as="alternateBounds" />
          </mxGeometry>
        </mxCell>
        <mxCell id="d_pu53hUmGRTe69JMyzy-382" value="BIGINT" style="shape=partialRectangle;connectable=0;fillColor=none;top=0;left=0;bottom=0;right=0;align=left;spacingLeft=6;overflow=hidden;sketch=1;fontSize=18;fontFamily=Space Mono;fontSource=https%3A%2F%2Ffonts.googleapis.com%2Fcss%3Ffamily%3DSpace%2BMono;" parent="d_pu53hUmGRTe69JMyzy-379" vertex="1">
          <mxGeometry x="150" width="120" height="30" as="geometry">
            <mxRectangle width="120" height="30" as="alternateBounds" />
          </mxGeometry>
        </mxCell>
        <mxCell id="d_pu53hUmGRTe69JMyzy-383" value="NOT NULL" style="shape=partialRectangle;connectable=0;fillColor=none;top=0;left=0;bottom=0;right=0;align=left;spacingLeft=6;overflow=hidden;sketch=1;fontSize=18;fontFamily=Space Mono;fontSource=https%3A%2F%2Ffonts.googleapis.com%2Fcss%3Ffamily%3DSpace%2BMono;" parent="d_pu53hUmGRTe69JMyzy-379" vertex="1">
          <mxGeometry x="270" width="110" height="30" as="geometry">
            <mxRectangle width="110" height="30" as="alternateBounds" />
          </mxGeometry>
        </mxCell>
        <mxCell id="d_pu53hUmGRTe69JMyzy-384" value="" style="shape=tableRow;horizontal=0;startSize=0;swimlaneHead=0;swimlaneBody=0;fillColor=none;collapsible=0;dropTarget=0;points=[[0,0.5],[1,0.5]];portConstraint=eastwest;top=0;left=0;right=0;bottom=0;sketch=1;fontSize=18;fontFamily=Space Mono;fontSource=https%3A%2F%2Ffonts.googleapis.com%2Fcss%3Ffamily%3DSpace%2BMono;" parent="d_pu53hUmGRTe69JMyzy-373" vertex="1">
          <mxGeometry y="90" width="380" height="30" as="geometry" />
        </mxCell>
        <mxCell id="d_pu53hUmGRTe69JMyzy-385" value="FG" style="shape=partialRectangle;connectable=0;fillColor=none;top=0;left=0;bottom=0;right=0;editable=1;overflow=hidden;sketch=1;fontSize=18;fontFamily=Space Mono;fontSource=https%3A%2F%2Ffonts.googleapis.com%2Fcss%3Ffamily%3DSpace%2BMono;" parent="d_pu53hUmGRTe69JMyzy-384" vertex="1">
          <mxGeometry width="30" height="30" as="geometry">
            <mxRectangle width="30" height="30" as="alternateBounds" />
          </mxGeometry>
        </mxCell>
        <mxCell id="d_pu53hUmGRTe69JMyzy-386" value="beat_id" style="shape=partialRectangle;connectable=0;fillColor=none;top=0;left=0;bottom=0;right=0;align=left;spacingLeft=6;overflow=hidden;sketch=1;fontSize=18;fontFamily=Space Mono;fontSource=https%3A%2F%2Ffonts.googleapis.com%2Fcss%3Ffamily%3DSpace%2BMono;" parent="d_pu53hUmGRTe69JMyzy-384" vertex="1">
          <mxGeometry x="30" width="120" height="30" as="geometry">
            <mxRectangle width="120" height="30" as="alternateBounds" />
          </mxGeometry>
        </mxCell>
        <mxCell id="d_pu53hUmGRTe69JMyzy-387" value="BIGINT" style="shape=partialRectangle;connectable=0;fillColor=none;top=0;left=0;bottom=0;right=0;align=left;spacingLeft=6;overflow=hidden;sketch=1;fontSize=18;fontFamily=Space Mono;fontSource=https%3A%2F%2Ffonts.googleapis.com%2Fcss%3Ffamily%3DSpace%2BMono;" parent="d_pu53hUmGRTe69JMyzy-384" vertex="1">
          <mxGeometry x="150" width="120" height="30" as="geometry">
            <mxRectangle width="120" height="30" as="alternateBounds" />
          </mxGeometry>
        </mxCell>
        <mxCell id="d_pu53hUmGRTe69JMyzy-388" value="NOT NULL" style="shape=partialRectangle;connectable=0;fillColor=none;top=0;left=0;bottom=0;right=0;align=left;spacingLeft=6;overflow=hidden;sketch=1;fontSize=18;fontFamily=Space Mono;fontSource=https%3A%2F%2Ffonts.googleapis.com%2Fcss%3Ffamily%3DSpace%2BMono;" parent="d_pu53hUmGRTe69JMyzy-384" vertex="1">
          <mxGeometry x="270" width="110" height="30" as="geometry">
            <mxRectangle width="110" height="30" as="alternateBounds" />
          </mxGeometry>
        </mxCell>
        <mxCell id="d_pu53hUmGRTe69JMyzy-394" style="shape=tableRow;horizontal=0;startSize=0;swimlaneHead=0;swimlaneBody=0;fillColor=none;collapsible=0;dropTarget=0;points=[[0,0.5],[1,0.5]];portConstraint=eastwest;top=0;left=0;right=0;bottom=0;sketch=1;fontSize=18;fontFamily=Space Mono;fontSource=https%3A%2F%2Ffonts.googleapis.com%2Fcss%3Ffamily%3DSpace%2BMono;" parent="d_pu53hUmGRTe69JMyzy-373" vertex="1">
          <mxGeometry y="120" width="380" height="30" as="geometry" />
        </mxCell>
        <mxCell id="d_pu53hUmGRTe69JMyzy-395" style="shape=partialRectangle;connectable=0;fillColor=none;top=0;left=0;bottom=0;right=0;editable=1;overflow=hidden;sketch=1;fontSize=18;fontFamily=Space Mono;fontSource=https%3A%2F%2Ffonts.googleapis.com%2Fcss%3Ffamily%3DSpace%2BMono;" parent="d_pu53hUmGRTe69JMyzy-394" vertex="1">
          <mxGeometry width="30" height="30" as="geometry">
            <mxRectangle width="30" height="30" as="alternateBounds" />
          </mxGeometry>
        </mxCell>
        <mxCell id="d_pu53hUmGRTe69JMyzy-396" value="created_at" style="shape=partialRectangle;connectable=0;fillColor=none;top=0;left=0;bottom=0;right=0;align=left;spacingLeft=6;overflow=hidden;sketch=1;fontSize=18;fontFamily=Space Mono;fontSource=https%3A%2F%2Ffonts.googleapis.com%2Fcss%3Ffamily%3DSpace%2BMono;" parent="d_pu53hUmGRTe69JMyzy-394" vertex="1">
          <mxGeometry x="30" width="120" height="30" as="geometry">
            <mxRectangle width="120" height="30" as="alternateBounds" />
          </mxGeometry>
        </mxCell>
        <mxCell id="d_pu53hUmGRTe69JMyzy-397" value="TIMESTAMP" style="shape=partialRectangle;connectable=0;fillColor=none;top=0;left=0;bottom=0;right=0;align=left;spacingLeft=6;overflow=hidden;sketch=1;fontSize=18;fontFamily=Space Mono;fontSource=https%3A%2F%2Ffonts.googleapis.com%2Fcss%3Ffamily%3DSpace%2BMono;" parent="d_pu53hUmGRTe69JMyzy-394" vertex="1">
          <mxGeometry x="150" width="120" height="30" as="geometry">
            <mxRectangle width="120" height="30" as="alternateBounds" />
          </mxGeometry>
        </mxCell>
        <mxCell id="d_pu53hUmGRTe69JMyzy-398" value="NOT NULL" style="shape=partialRectangle;connectable=0;fillColor=none;top=0;left=0;bottom=0;right=0;align=left;spacingLeft=6;overflow=hidden;sketch=1;fontSize=18;fontFamily=Space Mono;fontSource=https%3A%2F%2Ffonts.googleapis.com%2Fcss%3Ffamily%3DSpace%2BMono;" parent="d_pu53hUmGRTe69JMyzy-394" vertex="1">
          <mxGeometry x="270" width="110" height="30" as="geometry">
            <mxRectangle width="110" height="30" as="alternateBounds" />
          </mxGeometry>
        </mxCell>
        <mxCell id="d_pu53hUmGRTe69JMyzy-399" style="edgeStyle=orthogonalEdgeStyle;rounded=0;orthogonalLoop=1;jettySize=auto;html=1;fontFamily=Verdana;fontSize=18;startArrow=ERone;startFill=0;endArrow=ERmandOne;endFill=0;strokeWidth=3;fillColor=#fff2cc;strokeColor=#d6b656;entryX=0;entryY=0.5;entryDx=0;entryDy=0;" parent="1" target="9T4gCMgOc6zHNCj7xmCQ-30" edge="1">
          <mxGeometry relative="1" as="geometry">
            <mxPoint x="644" y="-807" as="sourcePoint" />
            <mxPoint x="661" y="-514" as="targetPoint" />
            <Array as="points">
              <mxPoint x="607" y="-807" />
              <mxPoint x="607" y="-674" />
            </Array>
          </mxGeometry>
        </mxCell>
        <mxCell id="d_pu53hUmGRTe69JMyzy-400" style="edgeStyle=orthogonalEdgeStyle;rounded=0;orthogonalLoop=1;jettySize=auto;html=1;entryX=0;entryY=0.751;entryDx=0;entryDy=0;entryPerimeter=0;fontFamily=Verdana;fontSize=18;startArrow=ERzeroToMany;startFill=0;endArrow=ERone;endFill=0;strokeWidth=3;fillColor=#fff2cc;strokeColor=#d6b656;exitX=1;exitY=0.5;exitDx=0;exitDy=0;" parent="1" source="d_pu53hUmGRTe69JMyzy-379" target="d_pu53hUmGRTe69JMyzy-175" edge="1">
          <mxGeometry relative="1" as="geometry">
            <Array as="points">
              <mxPoint x="1110" y="-769" />
              <mxPoint x="1110" y="-991" />
            </Array>
            <mxPoint x="1045" y="-796" as="sourcePoint" />
          </mxGeometry>
        </mxCell>
        <mxCell id="d_pu53hUmGRTe69JMyzy-401" value="account&lt;br&gt;beat" style="rounded=1;arcSize=10;whiteSpace=wrap;html=1;align=center;sketch=1;fillColor=#fff2cc;strokeColor=#d6b656;fontFamily=Space Mono;fontSource=https%3A%2F%2Ffonts.googleapis.com%2Fcss%3Ffamily%3DSpace%2BMono;fontSize=27;" parent="1" vertex="1">
          <mxGeometry x="76" y="-950" width="131" height="72" as="geometry" />
        </mxCell>
        <mxCell id="d_pu53hUmGRTe69JMyzy-403" value="tag" style="rounded=1;arcSize=10;whiteSpace=wrap;html=1;align=center;sketch=1;fillColor=#e1d5e7;strokeColor=#9673a6;fontFamily=Space Mono;fontSource=https%3A%2F%2Ffonts.googleapis.com%2Fcss%3Ffamily%3DSpace%2BMono;fontSize=27;" parent="1" vertex="1">
          <mxGeometry x="177" y="-776" width="70" height="40" as="geometry" />
        </mxCell>
        <mxCell id="d_pu53hUmGRTe69JMyzy-404" value="price" style="rounded=1;arcSize=10;whiteSpace=wrap;html=1;align=center;sketch=1;fillColor=#e1d5e7;strokeColor=#9673a6;fontFamily=Space Mono;fontSource=https%3A%2F%2Ffonts.googleapis.com%2Fcss%3Ffamily%3DSpace%2BMono;fontSize=27;" parent="1" vertex="1">
          <mxGeometry x="254.5" y="-776" width="98" height="40" as="geometry" />
        </mxCell>
        <mxCell id="CuWNQdxuULS4M7TwnGaN-1" value="playlist" style="shape=table;startSize=30;container=1;collapsible=1;childLayout=tableLayout;fixedRows=1;rowLines=0;fontStyle=1;align=center;resizeLast=1;sketch=1;fontSize=18;fillColor=#d5e8d4;strokeColor=#82b366;fontFamily=Space Mono;fontSource=https%3A%2F%2Ffonts.googleapis.com%2Fcss%3Ffamily%3DSpace%2BMono;" parent="1" vertex="1">
          <mxGeometry x="1200.03" y="-584" width="386.4375" height="130" as="geometry" />
        </mxCell>
        <mxCell id="CuWNQdxuULS4M7TwnGaN-2" value="" style="shape=tableRow;horizontal=0;startSize=0;swimlaneHead=0;swimlaneBody=0;fillColor=none;collapsible=0;dropTarget=0;points=[[0,0.5],[1,0.5]];portConstraint=eastwest;top=0;left=0;right=0;bottom=1;sketch=1;fontSize=18;fontFamily=Space Mono;fontSource=https%3A%2F%2Ffonts.googleapis.com%2Fcss%3Ffamily%3DSpace%2BMono;" parent="CuWNQdxuULS4M7TwnGaN-1" vertex="1">
          <mxGeometry y="30" width="386.4375" height="30" as="geometry" />
        </mxCell>
        <mxCell id="CuWNQdxuULS4M7TwnGaN-3" value="PK" style="shape=partialRectangle;connectable=0;fillColor=none;top=0;left=0;bottom=0;right=0;fontStyle=1;overflow=hidden;sketch=1;fontSize=18;fontFamily=Space Mono;fontSource=https%3A%2F%2Ffonts.googleapis.com%2Fcss%3Ffamily%3DSpace%2BMono;" parent="CuWNQdxuULS4M7TwnGaN-2" vertex="1">
          <mxGeometry width="45.1875" height="30" as="geometry">
            <mxRectangle width="45.1875" height="30" as="alternateBounds" />
          </mxGeometry>
        </mxCell>
        <mxCell id="CuWNQdxuULS4M7TwnGaN-4" value="id" style="shape=partialRectangle;connectable=0;fillColor=none;top=0;left=0;bottom=0;right=0;align=left;spacingLeft=6;fontStyle=1;overflow=hidden;sketch=1;fontSize=18;fontFamily=Space Mono;fontSource=https%3A%2F%2Ffonts.googleapis.com%2Fcss%3Ffamily%3DSpace%2BMono;" parent="CuWNQdxuULS4M7TwnGaN-2" vertex="1">
          <mxGeometry x="45.1875" width="121.25" height="30" as="geometry">
            <mxRectangle width="121.25" height="30" as="alternateBounds" />
          </mxGeometry>
        </mxCell>
        <mxCell id="CuWNQdxuULS4M7TwnGaN-5" value="BIGSERIAL" style="shape=partialRectangle;connectable=0;fillColor=none;top=0;left=0;bottom=0;right=0;align=left;spacingLeft=6;fontStyle=1;overflow=hidden;sketch=1;fontSize=18;fontFamily=Space Mono;fontSource=https%3A%2F%2Ffonts.googleapis.com%2Fcss%3Ffamily%3DSpace%2BMono;" parent="CuWNQdxuULS4M7TwnGaN-2" vertex="1">
          <mxGeometry x="166.4375" width="110" height="30" as="geometry">
            <mxRectangle width="110" height="30" as="alternateBounds" />
          </mxGeometry>
        </mxCell>
        <mxCell id="CuWNQdxuULS4M7TwnGaN-6" style="shape=partialRectangle;connectable=0;fillColor=none;top=0;left=0;bottom=0;right=0;align=left;spacingLeft=6;fontStyle=1;overflow=hidden;sketch=1;fontSize=18;fontFamily=Space Mono;fontSource=https%3A%2F%2Ffonts.googleapis.com%2Fcss%3Ffamily%3DSpace%2BMono;" parent="CuWNQdxuULS4M7TwnGaN-2" vertex="1">
          <mxGeometry x="276.4375" width="110" height="30" as="geometry">
            <mxRectangle width="110" height="30" as="alternateBounds" />
          </mxGeometry>
        </mxCell>
        <mxCell id="CuWNQdxuULS4M7TwnGaN-17" style="shape=tableRow;horizontal=0;startSize=0;swimlaneHead=0;swimlaneBody=0;fillColor=none;collapsible=0;dropTarget=0;points=[[0,0.5],[1,0.5]];portConstraint=eastwest;top=0;left=0;right=0;bottom=0;sketch=1;fontSize=18;fontFamily=Space Mono;fontSource=https%3A%2F%2Ffonts.googleapis.com%2Fcss%3Ffamily%3DSpace%2BMono;" parent="CuWNQdxuULS4M7TwnGaN-1" vertex="1">
          <mxGeometry y="60" width="386.4375" height="30" as="geometry" />
        </mxCell>
        <mxCell id="CuWNQdxuULS4M7TwnGaN-18" style="shape=partialRectangle;connectable=0;fillColor=none;top=0;left=0;bottom=0;right=0;editable=1;overflow=hidden;sketch=1;fontSize=18;fontFamily=Space Mono;fontSource=https%3A%2F%2Ffonts.googleapis.com%2Fcss%3Ffamily%3DSpace%2BMono;" parent="CuWNQdxuULS4M7TwnGaN-17" vertex="1">
          <mxGeometry width="45.1875" height="30" as="geometry">
            <mxRectangle width="45.1875" height="30" as="alternateBounds" />
          </mxGeometry>
        </mxCell>
        <mxCell id="CuWNQdxuULS4M7TwnGaN-19" value="name" style="shape=partialRectangle;connectable=0;fillColor=none;top=0;left=0;bottom=0;right=0;align=left;spacingLeft=6;overflow=hidden;sketch=1;fontSize=18;fontFamily=Space Mono;fontSource=https%3A%2F%2Ffonts.googleapis.com%2Fcss%3Ffamily%3DSpace%2BMono;" parent="CuWNQdxuULS4M7TwnGaN-17" vertex="1">
          <mxGeometry x="45.1875" width="121.25" height="30" as="geometry">
            <mxRectangle width="121.25" height="30" as="alternateBounds" />
          </mxGeometry>
        </mxCell>
        <mxCell id="CuWNQdxuULS4M7TwnGaN-20" value="TEXT" style="shape=partialRectangle;connectable=0;fillColor=none;top=0;left=0;bottom=0;right=0;align=left;spacingLeft=6;overflow=hidden;sketch=1;fontSize=18;fontFamily=Space Mono;fontSource=https%3A%2F%2Ffonts.googleapis.com%2Fcss%3Ffamily%3DSpace%2BMono;" parent="CuWNQdxuULS4M7TwnGaN-17" vertex="1">
          <mxGeometry x="166.4375" width="110" height="30" as="geometry">
            <mxRectangle width="110" height="30" as="alternateBounds" />
          </mxGeometry>
        </mxCell>
        <mxCell id="CuWNQdxuULS4M7TwnGaN-21" value="NOT NULL" style="shape=partialRectangle;connectable=0;fillColor=none;top=0;left=0;bottom=0;right=0;align=left;spacingLeft=6;overflow=hidden;sketch=1;fontSize=18;fontFamily=Space Mono;fontSource=https%3A%2F%2Ffonts.googleapis.com%2Fcss%3Ffamily%3DSpace%2BMono;" parent="CuWNQdxuULS4M7TwnGaN-17" vertex="1">
          <mxGeometry x="276.4375" width="110" height="30" as="geometry">
            <mxRectangle width="110" height="30" as="alternateBounds" />
          </mxGeometry>
        </mxCell>
        <mxCell id="CuWNQdxuULS4M7TwnGaN-22" style="shape=tableRow;horizontal=0;startSize=0;swimlaneHead=0;swimlaneBody=0;fillColor=none;collapsible=0;dropTarget=0;points=[[0,0.5],[1,0.5]];portConstraint=eastwest;top=0;left=0;right=0;bottom=0;sketch=1;fontSize=18;fontFamily=Space Mono;fontSource=https%3A%2F%2Ffonts.googleapis.com%2Fcss%3Ffamily%3DSpace%2BMono;" parent="CuWNQdxuULS4M7TwnGaN-1" vertex="1">
          <mxGeometry y="90" width="386.4375" height="30" as="geometry" />
        </mxCell>
        <mxCell id="CuWNQdxuULS4M7TwnGaN-23" style="shape=partialRectangle;connectable=0;fillColor=none;top=0;left=0;bottom=0;right=0;editable=1;overflow=hidden;sketch=1;fontSize=18;fontFamily=Space Mono;fontSource=https%3A%2F%2Ffonts.googleapis.com%2Fcss%3Ffamily%3DSpace%2BMono;" parent="CuWNQdxuULS4M7TwnGaN-22" vertex="1">
          <mxGeometry width="45.1875" height="30" as="geometry">
            <mxRectangle width="45.1875" height="30" as="alternateBounds" />
          </mxGeometry>
        </mxCell>
        <mxCell id="CuWNQdxuULS4M7TwnGaN-24" value="created_at" style="shape=partialRectangle;connectable=0;fillColor=none;top=0;left=0;bottom=0;right=0;align=left;spacingLeft=6;overflow=hidden;sketch=1;fontSize=18;fontFamily=Space Mono;fontSource=https%3A%2F%2Ffonts.googleapis.com%2Fcss%3Ffamily%3DSpace%2BMono;" parent="CuWNQdxuULS4M7TwnGaN-22" vertex="1">
          <mxGeometry x="45.1875" width="121.25" height="30" as="geometry">
            <mxRectangle width="121.25" height="30" as="alternateBounds" />
          </mxGeometry>
        </mxCell>
        <mxCell id="CuWNQdxuULS4M7TwnGaN-25" value="TIMESTAMP" style="shape=partialRectangle;connectable=0;fillColor=none;top=0;left=0;bottom=0;right=0;align=left;spacingLeft=6;overflow=hidden;sketch=1;fontSize=18;fontFamily=Space Mono;fontSource=https%3A%2F%2Ffonts.googleapis.com%2Fcss%3Ffamily%3DSpace%2BMono;" parent="CuWNQdxuULS4M7TwnGaN-22" vertex="1">
          <mxGeometry x="166.4375" width="110" height="30" as="geometry">
            <mxRectangle width="110" height="30" as="alternateBounds" />
          </mxGeometry>
        </mxCell>
        <mxCell id="CuWNQdxuULS4M7TwnGaN-26" value="NOT NULL" style="shape=partialRectangle;connectable=0;fillColor=none;top=0;left=0;bottom=0;right=0;align=left;spacingLeft=6;overflow=hidden;sketch=1;fontSize=18;fontFamily=Space Mono;fontSource=https%3A%2F%2Ffonts.googleapis.com%2Fcss%3Ffamily%3DSpace%2BMono;" parent="CuWNQdxuULS4M7TwnGaN-22" vertex="1">
          <mxGeometry x="276.4375" width="110" height="30" as="geometry">
            <mxRectangle width="110" height="30" as="alternateBounds" />
          </mxGeometry>
        </mxCell>
        <mxCell id="CuWNQdxuULS4M7TwnGaN-32" value="playlist_beat" style="shape=table;startSize=30;container=1;collapsible=1;childLayout=tableLayout;fixedRows=1;rowLines=0;fontStyle=1;align=center;resizeLast=1;sketch=1;fontSize=18;fillColor=#d5e8d4;strokeColor=#82b366;fontFamily=Space Mono;fontSource=https%3A%2F%2Ffonts.googleapis.com%2Fcss%3Ffamily%3DSpace%2BMono;" parent="1" vertex="1">
          <mxGeometry x="1200.03" y="-414" width="287.1875" height="100" as="geometry" />
        </mxCell>
        <mxCell id="CuWNQdxuULS4M7TwnGaN-38" style="shape=tableRow;horizontal=0;startSize=0;swimlaneHead=0;swimlaneBody=0;fillColor=none;collapsible=0;dropTarget=0;points=[[0,0.5],[1,0.5]];portConstraint=eastwest;top=0;left=0;right=0;bottom=0;sketch=1;fontSize=18;fontFamily=Space Mono;fontSource=https%3A%2F%2Ffonts.googleapis.com%2Fcss%3Ffamily%3DSpace%2BMono;" parent="CuWNQdxuULS4M7TwnGaN-32" vertex="1">
          <mxGeometry y="30" width="287.1875" height="30" as="geometry" />
        </mxCell>
        <mxCell id="CuWNQdxuULS4M7TwnGaN-39" value="PK,FG" style="shape=partialRectangle;connectable=0;fillColor=none;top=0;left=0;bottom=0;right=0;editable=1;overflow=hidden;sketch=1;fontSize=18;fontFamily=Space Mono;fontSource=https%3A%2F%2Ffonts.googleapis.com%2Fcss%3Ffamily%3DSpace%2BMono;" parent="CuWNQdxuULS4M7TwnGaN-38" vertex="1">
          <mxGeometry width="64.6875" height="30" as="geometry">
            <mxRectangle width="64.6875" height="30" as="alternateBounds" />
          </mxGeometry>
        </mxCell>
        <mxCell id="CuWNQdxuULS4M7TwnGaN-40" value="playlist_id" style="shape=partialRectangle;connectable=0;fillColor=none;top=0;left=0;bottom=0;right=0;align=left;spacingLeft=6;overflow=hidden;sketch=1;fontSize=18;fontFamily=Space Mono;fontSource=https%3A%2F%2Ffonts.googleapis.com%2Fcss%3Ffamily%3DSpace%2BMono;" parent="CuWNQdxuULS4M7TwnGaN-38" vertex="1">
          <mxGeometry x="64.6875" width="141.25" height="30" as="geometry">
            <mxRectangle width="141.25" height="30" as="alternateBounds" />
          </mxGeometry>
        </mxCell>
        <mxCell id="CuWNQdxuULS4M7TwnGaN-41" value="BIGINT" style="shape=partialRectangle;connectable=0;fillColor=none;top=0;left=0;bottom=0;right=0;align=left;spacingLeft=6;overflow=hidden;sketch=1;fontSize=18;fontFamily=Space Mono;fontSource=https%3A%2F%2Ffonts.googleapis.com%2Fcss%3Ffamily%3DSpace%2BMono;" parent="CuWNQdxuULS4M7TwnGaN-38" vertex="1">
          <mxGeometry x="205.9375" width="81.25" height="30" as="geometry">
            <mxRectangle width="81.25" height="30" as="alternateBounds" />
          </mxGeometry>
        </mxCell>
        <mxCell id="CuWNQdxuULS4M7TwnGaN-43" value="" style="shape=tableRow;horizontal=0;startSize=0;swimlaneHead=0;swimlaneBody=0;fillColor=none;collapsible=0;dropTarget=0;points=[[0,0.5],[1,0.5]];portConstraint=eastwest;top=0;left=0;right=0;bottom=0;sketch=1;fontSize=18;fontFamily=Space Mono;fontSource=https%3A%2F%2Ffonts.googleapis.com%2Fcss%3Ffamily%3DSpace%2BMono;" parent="CuWNQdxuULS4M7TwnGaN-32" vertex="1">
          <mxGeometry y="60" width="287.1875" height="30" as="geometry" />
        </mxCell>
        <mxCell id="CuWNQdxuULS4M7TwnGaN-44" value="PK,FG" style="shape=partialRectangle;connectable=0;fillColor=none;top=0;left=0;bottom=0;right=0;editable=1;overflow=hidden;sketch=1;fontSize=18;fontFamily=Space Mono;fontSource=https%3A%2F%2Ffonts.googleapis.com%2Fcss%3Ffamily%3DSpace%2BMono;" parent="CuWNQdxuULS4M7TwnGaN-43" vertex="1">
          <mxGeometry width="64.6875" height="30" as="geometry">
            <mxRectangle width="64.6875" height="30" as="alternateBounds" />
          </mxGeometry>
        </mxCell>
        <mxCell id="CuWNQdxuULS4M7TwnGaN-45" value="beat_id" style="shape=partialRectangle;connectable=0;fillColor=none;top=0;left=0;bottom=0;right=0;align=left;spacingLeft=6;overflow=hidden;sketch=1;fontSize=18;fontFamily=Space Mono;fontSource=https%3A%2F%2Ffonts.googleapis.com%2Fcss%3Ffamily%3DSpace%2BMono;" parent="CuWNQdxuULS4M7TwnGaN-43" vertex="1">
          <mxGeometry x="64.6875" width="141.25" height="30" as="geometry">
            <mxRectangle width="141.25" height="30" as="alternateBounds" />
          </mxGeometry>
        </mxCell>
        <mxCell id="CuWNQdxuULS4M7TwnGaN-46" value="BIGINT" style="shape=partialRectangle;connectable=0;fillColor=none;top=0;left=0;bottom=0;right=0;align=left;spacingLeft=6;overflow=hidden;sketch=1;fontSize=18;fontFamily=Space Mono;fontSource=https%3A%2F%2Ffonts.googleapis.com%2Fcss%3Ffamily%3DSpace%2BMono;" parent="CuWNQdxuULS4M7TwnGaN-43" vertex="1">
          <mxGeometry x="205.9375" width="81.25" height="30" as="geometry">
            <mxRectangle width="81.25" height="30" as="alternateBounds" />
          </mxGeometry>
        </mxCell>
        <mxCell id="CuWNQdxuULS4M7TwnGaN-58" style="edgeStyle=orthogonalEdgeStyle;rounded=0;orthogonalLoop=1;jettySize=auto;html=1;exitX=0;exitY=0.5;exitDx=0;exitDy=0;entryX=0;entryY=0.5;entryDx=0;entryDy=0;endArrow=ERzeroToMany;endFill=0;fontSize=18;fontFamily=Verdana;strokeColor=#d6b656;startArrow=ERmandOne;startFill=0;strokeWidth=3;fillColor=#fff2cc;" parent="1" source="d_pu53hUmGRTe69JMyzy-254" target="CuWNQdxuULS4M7TwnGaN-2" edge="1">
          <mxGeometry relative="1" as="geometry">
            <Array as="points">
              <mxPoint x="1164" y="-655" />
              <mxPoint x="1164" y="-539" />
            </Array>
          </mxGeometry>
        </mxCell>
        <mxCell id="CuWNQdxuULS4M7TwnGaN-60" style="edgeStyle=orthogonalEdgeStyle;rounded=0;orthogonalLoop=1;jettySize=auto;html=1;exitX=1;exitY=0.5;exitDx=0;exitDy=0;entryX=1;entryY=0.5;entryDx=0;entryDy=0;endArrow=ERzeroToMany;endFill=0;fontSize=18;fontFamily=Verdana;strokeColor=#82b366;startArrow=ERmandOne;startFill=0;strokeWidth=3;fillColor=#d5e8d4;" parent="1" source="CuWNQdxuULS4M7TwnGaN-38" target="CuWNQdxuULS4M7TwnGaN-2" edge="1">
          <mxGeometry relative="1" as="geometry" />
        </mxCell>
        <mxCell id="CuWNQdxuULS4M7TwnGaN-61" style="edgeStyle=orthogonalEdgeStyle;rounded=0;orthogonalLoop=1;jettySize=auto;html=1;exitX=0;exitY=0.5;exitDx=0;exitDy=0;endArrow=ERzeroToMany;endFill=0;fontSize=18;fontFamily=Verdana;strokeColor=#82b366;startArrow=ERmandOne;startFill=0;strokeWidth=3;fillColor=#d5e8d4;entryX=0.992;entryY=0.003;entryDx=0;entryDy=0;entryPerimeter=0;" parent="1" source="CuWNQdxuULS4M7TwnGaN-43" target="9T4gCMgOc6zHNCj7xmCQ-30" edge="1">
          <mxGeometry relative="1" as="geometry">
            <mxPoint x="1056" y="-576" as="targetPoint" />
            <Array as="points">
              <mxPoint x="1144" y="-339" />
              <mxPoint x="1144" y="-689" />
            </Array>
          </mxGeometry>
        </mxCell>
        <mxCell id="CuWNQdxuULS4M7TwnGaN-65" value="playlist" style="text;html=1;align=center;verticalAlign=middle;resizable=0;points=[];autosize=1;strokeColor=#82b366;fillColor=#d5e8d4;sketch=1;fontFamily=Space Mono;fontSource=https%3A%2F%2Ffonts.googleapis.com%2Fcss%3Ffamily%3DSpace%2BMono;imageHeight=24;imageWidth=28;arcSize=12;fontSize=27;fontStyle=1;rounded=1;labelPosition=center;verticalLabelPosition=middle;spacingRight=0;spacingLeft=0;spacingTop=15;spacingBottom=21;" parent="1" vertex="1">
          <mxGeometry x="223" y="-864" width="146" height="76" as="geometry" />
        </mxCell>
        <mxCell id="CuWNQdxuULS4M7TwnGaN-67" value="playlist&lt;br&gt;beat" style="text;html=1;align=center;verticalAlign=middle;resizable=0;points=[];autosize=1;strokeColor=#82b366;fillColor=#d5e8d4;sketch=1;fontFamily=Space Mono;fontSource=https%3A%2F%2Ffonts.googleapis.com%2Fcss%3Ffamily%3DSpace%2BMono;imageHeight=24;imageWidth=28;arcSize=12;fontSize=27;fontStyle=1;rounded=1;" parent="1" vertex="1">
          <mxGeometry x="57" y="-865" width="150" height="77" as="geometry" />
        </mxCell>
        <mxCell id="CuWNQdxuULS4M7TwnGaN-74" value="&lt;font style=&quot;font-size: 39px;&quot;&gt;BEAT STORE DATABASE&lt;/font&gt;" style="rounded=1;arcSize=10;whiteSpace=wrap;html=1;align=center;fillColor=#f8cecc;strokeColor=#b85450;" parent="1" vertex="1">
          <mxGeometry x="523" y="-1164" width="760" height="65" as="geometry" />
        </mxCell>
        <mxCell id="9T4gCMgOc6zHNCj7xmCQ-29" value="beat" style="shape=table;startSize=30;container=1;collapsible=1;childLayout=tableLayout;fixedRows=1;rowLines=0;fontStyle=1;align=center;resizeLast=1;sketch=1;fontSize=18;fillColor=#e1d5e7;strokeColor=#9673a6;fontFamily=Space Mono;fontSource=https%3A%2F%2Ffonts.googleapis.com%2Fcss%3Ffamily%3DSpace%2BMono;" vertex="1" parent="1">
          <mxGeometry x="650.45" y="-719" width="363.1052631578948" height="129.3658536585366" as="geometry" />
        </mxCell>
        <mxCell id="9T4gCMgOc6zHNCj7xmCQ-30" value="" style="shape=tableRow;horizontal=0;startSize=0;swimlaneHead=0;swimlaneBody=0;fillColor=none;collapsible=0;dropTarget=0;points=[[0,0.5],[1,0.5]];portConstraint=eastwest;top=0;left=0;right=0;bottom=1;sketch=1;fontSize=18;fontFamily=Space Mono;fontSource=https%3A%2F%2Ffonts.googleapis.com%2Fcss%3Ffamily%3DSpace%2BMono;" vertex="1" parent="9T4gCMgOc6zHNCj7xmCQ-29">
          <mxGeometry y="30" width="363.1052631578948" height="29" as="geometry" />
        </mxCell>
        <mxCell id="9T4gCMgOc6zHNCj7xmCQ-31" value="PK" style="shape=partialRectangle;connectable=0;fillColor=none;top=0;left=0;bottom=0;right=0;fontStyle=1;overflow=hidden;sketch=1;fontSize=18;fontFamily=Space Mono;fontSource=https%3A%2F%2Ffonts.googleapis.com%2Fcss%3Ffamily%3DSpace%2BMono;" vertex="1" parent="9T4gCMgOc6zHNCj7xmCQ-30">
          <mxGeometry width="30" height="29" as="geometry">
            <mxRectangle width="30" height="29" as="alternateBounds" />
          </mxGeometry>
        </mxCell>
        <mxCell id="9T4gCMgOc6zHNCj7xmCQ-32" value="id" style="shape=partialRectangle;connectable=0;fillColor=none;top=0;left=0;bottom=0;right=0;align=left;spacingLeft=6;fontStyle=1;overflow=hidden;sketch=1;fontSize=18;fontFamily=Space Mono;fontSource=https%3A%2F%2Ffonts.googleapis.com%2Fcss%3Ffamily%3DSpace%2BMono;" vertex="1" parent="9T4gCMgOc6zHNCj7xmCQ-30">
          <mxGeometry x="30" width="121.52631578947376" height="29" as="geometry">
            <mxRectangle width="121.52631578947376" height="29" as="alternateBounds" />
          </mxGeometry>
        </mxCell>
        <mxCell id="9T4gCMgOc6zHNCj7xmCQ-33" value="BIGSERIAL" style="shape=partialRectangle;connectable=0;fillColor=none;top=0;left=0;bottom=0;right=0;align=left;spacingLeft=6;fontStyle=1;overflow=hidden;sketch=1;fontSize=18;fontFamily=Space Mono;fontSource=https%3A%2F%2Ffonts.googleapis.com%2Fcss%3Ffamily%3DSpace%2BMono;" vertex="1" parent="9T4gCMgOc6zHNCj7xmCQ-30">
          <mxGeometry x="151.52631578947376" width="113.53250773993818" height="29" as="geometry">
            <mxRectangle width="113.53250773993818" height="29" as="alternateBounds" />
          </mxGeometry>
        </mxCell>
        <mxCell id="9T4gCMgOc6zHNCj7xmCQ-34" style="shape=partialRectangle;connectable=0;fillColor=none;top=0;left=0;bottom=0;right=0;align=left;spacingLeft=6;fontStyle=1;overflow=hidden;sketch=1;fontSize=18;fontFamily=Space Mono;fontSource=https%3A%2F%2Ffonts.googleapis.com%2Fcss%3Ffamily%3DSpace%2BMono;" vertex="1" parent="9T4gCMgOc6zHNCj7xmCQ-30">
          <mxGeometry x="265.05882352941194" width="98.04643962848286" height="29" as="geometry">
            <mxRectangle width="98.04643962848286" height="29" as="alternateBounds" />
          </mxGeometry>
        </mxCell>
        <mxCell id="9T4gCMgOc6zHNCj7xmCQ-55" style="shape=tableRow;horizontal=0;startSize=0;swimlaneHead=0;swimlaneBody=0;fillColor=none;collapsible=0;dropTarget=0;points=[[0,0.5],[1,0.5]];portConstraint=eastwest;top=0;left=0;right=0;bottom=0;sketch=1;fontSize=18;fontFamily=Space Mono;fontSource=https%3A%2F%2Ffonts.googleapis.com%2Fcss%3Ffamily%3DSpace%2BMono;" vertex="1" parent="9T4gCMgOc6zHNCj7xmCQ-29">
          <mxGeometry y="59" width="363.1052631578948" height="30" as="geometry" />
        </mxCell>
        <mxCell id="9T4gCMgOc6zHNCj7xmCQ-56" value="FG" style="shape=partialRectangle;connectable=0;fillColor=none;top=0;left=0;bottom=0;right=0;editable=1;overflow=hidden;sketch=1;fontSize=18;fontFamily=Space Mono;fontSource=https%3A%2F%2Ffonts.googleapis.com%2Fcss%3Ffamily%3DSpace%2BMono;" vertex="1" parent="9T4gCMgOc6zHNCj7xmCQ-55">
          <mxGeometry width="30" height="30" as="geometry">
            <mxRectangle width="30" height="30" as="alternateBounds" />
          </mxGeometry>
        </mxCell>
        <mxCell id="9T4gCMgOc6zHNCj7xmCQ-57" value="artist_id" style="shape=partialRectangle;connectable=0;fillColor=none;top=0;left=0;bottom=0;right=0;align=left;spacingLeft=6;overflow=hidden;sketch=1;fontSize=18;fontFamily=Space Mono;fontSource=https%3A%2F%2Ffonts.googleapis.com%2Fcss%3Ffamily%3DSpace%2BMono;" vertex="1" parent="9T4gCMgOc6zHNCj7xmCQ-55">
          <mxGeometry x="30" width="121.52631578947376" height="30" as="geometry">
            <mxRectangle width="121.52631578947376" height="30" as="alternateBounds" />
          </mxGeometry>
        </mxCell>
        <mxCell id="9T4gCMgOc6zHNCj7xmCQ-58" value="BIGINT" style="shape=partialRectangle;connectable=0;fillColor=none;top=0;left=0;bottom=0;right=0;align=left;spacingLeft=6;overflow=hidden;sketch=1;fontSize=18;fontFamily=Space Mono;fontSource=https%3A%2F%2Ffonts.googleapis.com%2Fcss%3Ffamily%3DSpace%2BMono;" vertex="1" parent="9T4gCMgOc6zHNCj7xmCQ-55">
          <mxGeometry x="151.52631578947376" width="113.53250773993818" height="30" as="geometry">
            <mxRectangle width="113.53250773993818" height="30" as="alternateBounds" />
          </mxGeometry>
        </mxCell>
        <mxCell id="9T4gCMgOc6zHNCj7xmCQ-59" value="NOT NULL" style="shape=partialRectangle;connectable=0;fillColor=none;top=0;left=0;bottom=0;right=0;align=left;spacingLeft=6;overflow=hidden;sketch=1;fontSize=18;fontFamily=Space Mono;fontSource=https%3A%2F%2Ffonts.googleapis.com%2Fcss%3Ffamily%3DSpace%2BMono;" vertex="1" parent="9T4gCMgOc6zHNCj7xmCQ-55">
          <mxGeometry x="265.05882352941194" width="98.04643962848286" height="30" as="geometry">
            <mxRectangle width="98.04643962848286" height="30" as="alternateBounds" />
          </mxGeometry>
        </mxCell>
        <mxCell id="9T4gCMgOc6zHNCj7xmCQ-60" style="shape=tableRow;horizontal=0;startSize=0;swimlaneHead=0;swimlaneBody=0;fillColor=none;collapsible=0;dropTarget=0;points=[[0,0.5],[1,0.5]];portConstraint=eastwest;top=0;left=0;right=0;bottom=0;sketch=1;fontSize=18;fontFamily=Space Mono;fontSource=https%3A%2F%2Ffonts.googleapis.com%2Fcss%3Ffamily%3DSpace%2BMono;" vertex="1" parent="9T4gCMgOc6zHNCj7xmCQ-29">
          <mxGeometry y="89" width="363.1052631578948" height="30" as="geometry" />
        </mxCell>
        <mxCell id="9T4gCMgOc6zHNCj7xmCQ-61" style="shape=partialRectangle;connectable=0;fillColor=none;top=0;left=0;bottom=0;right=0;editable=1;overflow=hidden;sketch=1;fontSize=18;fontFamily=Space Mono;fontSource=https%3A%2F%2Ffonts.googleapis.com%2Fcss%3Ffamily%3DSpace%2BMono;" vertex="1" parent="9T4gCMgOc6zHNCj7xmCQ-60">
          <mxGeometry width="30" height="30" as="geometry">
            <mxRectangle width="30" height="30" as="alternateBounds" />
          </mxGeometry>
        </mxCell>
        <mxCell id="9T4gCMgOc6zHNCj7xmCQ-62" value="created_at" style="shape=partialRectangle;connectable=0;fillColor=none;top=0;left=0;bottom=0;right=0;align=left;spacingLeft=6;overflow=hidden;sketch=1;fontSize=18;fontFamily=Space Mono;fontSource=https%3A%2F%2Ffonts.googleapis.com%2Fcss%3Ffamily%3DSpace%2BMono;" vertex="1" parent="9T4gCMgOc6zHNCj7xmCQ-60">
          <mxGeometry x="30" width="121.52631578947376" height="30" as="geometry">
            <mxRectangle width="121.52631578947376" height="30" as="alternateBounds" />
          </mxGeometry>
        </mxCell>
        <mxCell id="9T4gCMgOc6zHNCj7xmCQ-63" value="TIMESTAMP" style="shape=partialRectangle;connectable=0;fillColor=none;top=0;left=0;bottom=0;right=0;align=left;spacingLeft=6;overflow=hidden;sketch=1;fontSize=18;fontFamily=Space Mono;fontSource=https%3A%2F%2Ffonts.googleapis.com%2Fcss%3Ffamily%3DSpace%2BMono;" vertex="1" parent="9T4gCMgOc6zHNCj7xmCQ-60">
          <mxGeometry x="151.52631578947376" width="113.53250773993818" height="30" as="geometry">
            <mxRectangle width="113.53250773993818" height="30" as="alternateBounds" />
          </mxGeometry>
        </mxCell>
        <mxCell id="9T4gCMgOc6zHNCj7xmCQ-64" value="NOT NULL" style="shape=partialRectangle;connectable=0;fillColor=none;top=0;left=0;bottom=0;right=0;align=left;spacingLeft=6;overflow=hidden;sketch=1;fontSize=18;fontFamily=Space Mono;fontSource=https%3A%2F%2Ffonts.googleapis.com%2Fcss%3Ffamily%3DSpace%2BMono;" vertex="1" parent="9T4gCMgOc6zHNCj7xmCQ-60">
          <mxGeometry x="265.05882352941194" width="98.04643962848286" height="30" as="geometry">
            <mxRectangle width="98.04643962848286" height="30" as="alternateBounds" />
          </mxGeometry>
        </mxCell>
        <mxCell id="9T4gCMgOc6zHNCj7xmCQ-50" style="shape=tableRow;horizontal=0;startSize=0;swimlaneHead=0;swimlaneBody=0;fillColor=none;collapsible=0;dropTarget=0;points=[[0,0.5],[1,0.5]];portConstraint=eastwest;top=0;left=0;right=0;bottom=0;sketch=1;fontSize=18;fontFamily=Space Mono;fontSource=https%3A%2F%2Ffonts.googleapis.com%2Fcss%3Ffamily%3DSpace%2BMono;" vertex="1" parent="1">
          <mxGeometry x="648" y="-644" width="390" height="30" as="geometry" />
        </mxCell>
        <mxCell id="9T4gCMgOc6zHNCj7xmCQ-67" style="edgeStyle=orthogonalEdgeStyle;rounded=0;orthogonalLoop=1;jettySize=auto;html=1;entryX=0.998;entryY=0.947;entryDx=0;entryDy=0;endArrow=ERmandOne;fontSize=18;fontFamily=Space Mono;strokeColor=#9673a6;startArrow=ERoneToMany;startFill=0;endFill=0;strokeWidth=3;fillColor=#e1d5e7;fontSource=https%3A%2F%2Ffonts.googleapis.com%2Fcss%3Ffamily%3DSpace%2BMono;entryPerimeter=0;exitX=1;exitY=0.5;exitDx=0;exitDy=0;" edge="1" parent="1" source="d_pu53hUmGRTe69JMyzy-82" target="9T4gCMgOc6zHNCj7xmCQ-30">
          <mxGeometry relative="1" as="geometry">
            <Array as="points">
              <mxPoint x="1099" y="-87" />
              <mxPoint x="1099" y="-661" />
            </Array>
          </mxGeometry>
        </mxCell>
        <mxCell id="9T4gCMgOc6zHNCj7xmCQ-68" style="edgeStyle=orthogonalEdgeStyle;rounded=0;orthogonalLoop=1;jettySize=auto;html=1;entryX=1;entryY=0.5;entryDx=0;entryDy=0;endArrow=ERmandOne;fontSize=18;fontFamily=Space Mono;strokeColor=#9673a6;startArrow=ERmandOne;startFill=0;endFill=0;strokeWidth=3;fillColor=#e1d5e7;fontSource=https%3A%2F%2Ffonts.googleapis.com%2Fcss%3Ffamily%3DSpace%2BMono;exitX=1;exitY=0.5;exitDx=0;exitDy=0;" edge="1" parent="1" source="9T4gCMgOc6zHNCj7xmCQ-45" target="9T4gCMgOc6zHNCj7xmCQ-55">
          <mxGeometry relative="1" as="geometry">
            <Array as="points">
              <mxPoint x="1075" y="-491" />
              <mxPoint x="1075" y="-645" />
            </Array>
          </mxGeometry>
        </mxCell>
        <mxCell id="9T4gCMgOc6zHNCj7xmCQ-69" value="beat_data" style="rounded=1;arcSize=10;whiteSpace=wrap;html=1;align=center;sketch=1;fillColor=#e1d5e7;strokeColor=#9673a6;fontFamily=Space Mono;fontSource=https%3A%2F%2Ffonts.googleapis.com%2Fcss%3Ffamily%3DSpace%2BMono;fontSize=27;" vertex="1" parent="1">
          <mxGeometry x="130.5" y="-723" width="163" height="40" as="geometry" />
        </mxCell>
      </root>
    </mxGraphModel>
  </diagram>
</mxfile>
>>>>>>> 7433d04b707c67a5e058b8567e8108ffd12fb570
